<?xml version="1.0" standalone="no"?>
<!DOCTYPE svg PUBLIC "-//W3C//DTD SVG 20010904//EN"
 "http://www.w3.org/TR/2001/REC-SVG-20010904/DTD/svg10.dtd">
<svg version="1.0" xmlns="http://www.w3.org/2000/svg"
 width="830.000000pt" height="830.000000pt" viewBox="0 0 830.000000 830.000000"
 preserveAspectRatio="xMidYMid meet">
<metadata>
Created by potrace 1.14, written by Peter Selinger 2001-2017
</metadata>
<g transform="translate(0.000000,830.000000) scale(0.100000,-0.100000)"
fill="#000000" stroke="none">
<path d="M0 6084 c0 -1484 3 -2213 10 -2209 6 3 23 -3 39 -15 33 -23 38 -20
47 38 6 40 24 59 24 27 0 -20 10 -19 25 2 12 16 16 14 50 -20 21 -21 41 -34
44 -29 3 4 28 9 55 9 l48 0 -5 -44 c-3 -28 1 -55 9 -73 14 -27 16 -28 41 -15
27 14 61 11 98 -8 11 -6 27 -12 35 -13 8 -2 25 -15 36 -29 15 -19 42 -33 90
-46 38 -11 70 -24 72 -29 2 -6 10 -10 18 -10 8 0 14 -7 14 -15 0 -9 6 -12 18
-8 15 5 14 4 -2 -9 -24 -19 -6 -33 29 -24 19 5 29 0 47 -24 12 -17 28 -28 35
-26 9 4 7 -7 -6 -32 -10 -20 -23 -53 -29 -72 -6 -19 -26 -80 -45 -135 -19 -55
-43 -128 -53 -163 -23 -81 -36 -67 -20 22 8 38 11 77 9 87 -7 24 -40 34 -58
19 -12 -10 -15 -9 -15 4 0 9 -7 16 -15 16 -8 0 -15 -7 -15 -16 0 -23 19 -54
34 -54 7 0 23 -11 35 -24 14 -15 18 -24 9 -23 -41 1 -59 -4 -52 -15 6 -9 3 -9
-9 0 -9 8 -21 11 -27 7 -6 -4 -17 1 -25 11 -10 15 -16 16 -27 6 -8 -6 -18 -9
-21 -5 -4 3 -7 -5 -7 -18 0 -16 10 -30 31 -41 17 -10 27 -22 24 -28 -10 -17
-35 -11 -35 8 0 9 -4 13 -8 7 -4 -5 -11 -11 -17 -12 -5 -1 -18 -5 -27 -8 -13
-5 -18 -2 -18 8 0 13 -74 48 -76 36 -1 -8 -34 29 -34 39 0 5 7 9 15 9 8 0 15
-6 15 -13 0 -7 5 -16 12 -20 7 -5 9 -2 5 8 -9 24 4 30 19 10 12 -16 14 -16 28
3 9 11 16 14 16 8 0 -18 17 -16 24 3 8 21 -23 53 -34 35 -5 -9 -9 -10 -14 -2
-5 8 -13 8 -27 1 -22 -13 -25 -5 -5 16 8 8 27 14 42 14 15 0 24 3 21 6 -3 4 3
18 14 32 l20 26 -20 8 c-12 4 -21 12 -21 18 0 5 -6 10 -14 10 -8 0 -24 8 -36
18 -19 16 -21 22 -11 40 8 14 17 19 29 15 16 -6 16 -6 0 11 -10 9 -18 22 -18
27 0 5 -5 9 -11 9 -6 0 -8 -7 -5 -17 4 -9 1 -20 -6 -24 -7 -5 -13 -16 -13 -26
0 -24 -45 -29 -84 -8 -17 8 -33 15 -36 15 -20 -1 -25 1 -25 9 0 5 25 8 56 5
41 -3 54 -1 48 7 -5 8 -1 11 12 7 15 -4 19 0 19 19 0 12 -6 23 -13 23 -10 0
-12 8 -7 30 5 21 3 30 -6 30 -10 0 -10 3 -1 12 19 19 15 58 -5 59 -10 1 -29 3
-43 4 -71 6 -169 6 -200 0 -41 -8 -79 -47 -96 -97 -4 -10 -10 -18 -15 -18 -5
0 -9 -266 -9 -615 0 -472 3 -615 12 -615 9 0 9 -3 0 -12 -9 -9 -12 -270 -12
-1115 l0 -1103 134 0 c146 0 146 0 146 60 0 15 6 65 14 111 8 46 21 138 31
204 9 66 23 134 31 150 13 29 14 28 8 -25 -3 -30 -9 -89 -13 -130 -5 -41 -7
-78 -5 -82 2 -4 0 -9 -5 -13 -6 -3 -8 -30 -6 -60 2 -30 0 -55 -5 -55 -15 0
-23 -60 -10 -75 10 -12 10 -18 0 -30 -9 -10 -9 -15 -1 -15 6 0 10 -3 10 -7 -4
-26 4 -33 42 -33 l40 0 -18 30 c-14 24 -15 34 -6 48 16 26 50 204 73 389 5 40
20 94 33 120 24 48 24 48 6 88 -21 45 -24 114 -9 213 9 65 27 233 37 357 4 50
10 66 36 93 17 17 35 32 40 32 11 0 2 -182 -13 -275 -6 -33 -15 -109 -20 -170
-6 -60 -15 -139 -20 -175 -10 -68 -34 -314 -50 -510 -9 -116 -15 -162 -26
-212 l-6 -28 251 0 251 0 -26 43 c-15 23 -38 55 -51 71 -35 41 -60 104 -83
201 -24 101 -24 124 -7 192 11 42 11 57 1 82 -7 17 -9 31 -5 31 14 0 34 58 28
80 -3 11 -1 20 4 20 5 0 9 10 9 23 0 13 6 31 13 41 14 19 17 16 104 -88 30
-36 57 -35 50 2 -14 70 39 295 81 345 23 26 36 21 72 -30 61 -88 133 -173 145
-173 17 0 52 106 54 164 1 27 7 58 12 68 13 24 5 48 -15 48 -8 0 -33 36 -57
83 -23 45 -65 127 -93 182 -53 103 -61 111 -157 150 -46 19 -61 68 -54 177 5
74 3 103 -8 125 -25 48 -63 216 -51 220 6 2 9 15 6 29 -8 42 18 113 46 127 26
13 64 98 77 175 6 36 14 47 47 68 27 17 46 40 60 72 11 26 29 59 39 74 11 14
19 36 19 47 0 12 7 37 15 57 13 31 17 34 35 24 12 -6 26 -22 32 -35 6 -14 26
-29 47 -36 54 -18 149 -68 155 -82 5 -12 4 1 -15 168 -9 85 -8 107 4 140 9 22
18 63 22 90 4 28 13 61 22 74 12 18 14 38 9 82 -5 43 -3 68 8 91 17 38 21 73
13 108 -3 14 -8 63 -12 109 -5 75 -4 83 10 71 10 -9 15 -31 15 -76 0 -68 14
-89 37 -58 10 13 13 34 9 69 -3 28 -6 53 -6 58 0 4 -9 7 -20 7 -11 0 -23 8
-26 18 -5 16 -21 52 -33 77 -3 6 3 4 13 -4 16 -14 17 -10 15 70 -3 112 -30
162 -89 171 -20 2 -26 9 -29 38 -3 28 -5 31 -11 15 -5 -15 -8 -10 -11 22 -4
41 -4 41 15 25 19 -17 19 -16 2 10 -11 17 -14 32 -9 40 4 7 13 39 19 71 9 46
8 61 -3 77 -8 11 -19 18 -24 14 -5 -3 -9 -2 -8 3 1 4 0 10 -1 13 -1 3 -3 12
-5 20 -2 8 -6 23 -10 33 -5 11 -2 17 6 17 11 0 11 3 -1 10 -13 8 -12 10 4 10
15 0 16 3 6 15 -10 12 -15 13 -28 3 -8 -7 -28 -13 -43 -14 -28 0 -50 27 -54
68 -1 10 -5 21 -10 25 -4 5 -4 -3 0 -17 6 -23 4 -22 -28 10 l-34 36 2 137 c4
145 11 198 28 209 7 4 10 38 8 90 -2 79 20 241 39 277 5 9 13 50 19 91 15 104
27 143 51 157 17 11 21 10 35 -17 17 -33 21 -198 6 -246 -5 -16 -12 -44 -15
-61 -8 -49 20 -43 35 8 7 22 21 45 31 50 10 5 18 15 18 21 0 14 50 68 63 68 5
0 18 11 29 25 11 14 25 25 31 24 8 0 8 -2 0 -6 -17 -6 -17 -24 0 -21 16 4 12
-119 -7 -183 -18 -60 -7 -75 38 -50 42 24 130 46 151 37 41 -15 -20 -174 -115
-296 -15 -19 -30 -48 -34 -65 -4 -16 -13 -37 -20 -45 -18 -20 -47 -110 -36
-110 5 0 10 -6 12 -14 3 -13 6 -13 23 0 16 12 18 18 7 34 -10 17 -8 23 15 44
22 20 28 22 40 11 18 -18 16 -32 -4 -44 -10 -5 -15 -12 -12 -15 11 -11 52 33
46 49 -4 9 1 19 13 25 26 14 25 15 28 -30 2 -29 -1 -40 -12 -40 -7 0 -19 -7
-26 -15 -7 -9 -24 -14 -38 -13 -14 2 -27 -3 -30 -11 -3 -10 0 -12 12 -8 10 4
19 1 22 -7 3 -8 18 -13 37 -12 24 1 32 6 33 21 1 11 5 31 9 45 5 14 8 34 6 44
-2 14 2 17 14 12 12 -4 16 -2 12 8 -3 7 0 19 6 25 8 8 8 14 -1 23 -9 9 -12 9
-12 0 0 -7 -9 -12 -21 -12 -53 0 29 48 103 59 61 10 65 3 43 -73 -28 -97 -114
-227 -129 -194 -3 7 -4 4 -1 -7 4 -15 -9 -32 -47 -65 l-53 -45 30 39 c27 35
27 38 7 27 -12 -6 -22 -16 -22 -21 0 -6 -7 -10 -16 -10 -12 0 -15 -7 -12 -24
3 -14 1 -31 -3 -38 -7 -10 -9 -10 -9 0 0 26 -19 10 -26 -22 -3 -20 -11 -33
-17 -30 -7 2 -13 -6 -13 -21 -2 -32 19 -33 61 -1 40 31 113 65 145 68 l25 3 2
-100 c1 -55 -2 -114 -6 -130 -6 -21 -4 -34 5 -43 16 -15 45 -16 41 -1 -1 6 8
15 21 20 14 5 22 5 22 -2 0 -14 42 -7 47 8 2 6 -4 13 -14 16 -10 2 -5 3 10 1
19 -3 26 0 21 8 -5 7 -3 8 7 2 13 -8 62 -13 186 -17 22 -1 39 -6 35 -11 -3 -5
2 -6 12 -3 11 5 15 3 10 -5 -5 -8 -2 -9 10 -5 11 5 15 3 10 -5 -5 -8 -1 -9 12
-4 10 4 15 4 11 0 -4 -4 2 -22 14 -40 16 -26 18 -37 9 -54 -9 -16 -8 -22 5
-26 8 -3 22 -3 31 0 9 3 12 2 9 -5 -4 -6 0 -16 8 -22 37 -29 30 -54 -29 -114
-32 -32 -57 -61 -56 -65 1 -4 -5 -5 -13 -2 -8 4 -17 -1 -21 -10 -3 -9 -10 -14
-14 -11 -5 3 -16 -3 -26 -12 -10 -10 -26 -19 -35 -19 -26 -2 -79 -25 -75 -33
2 -3 -12 -6 -32 -7 -90 -2 -150 -10 -144 -18 3 -5 -1 -5 -9 0 -20 12 -39 11
-78 -3 -19 -8 -41 -11 -48 -8 -18 6 -63 -23 -63 -41 0 -8 5 -14 11 -14 5 0 8
4 5 9 -4 5 12 1 33 -10 48 -23 59 -24 63 -3 2 13 13 10 59 -15 31 -16 61 -27
65 -23 5 4 6 3 2 -1 -3 -5 12 -25 33 -44 41 -37 123 -61 143 -42 6 5 25 9 43
9 18 0 33 5 33 10 0 6 10 8 23 5 12 -2 71 -7 131 -9 84 -4 112 -9 127 -22 13
-12 16 -21 9 -28 -16 -16 -12 -26 10 -26 11 0 19 -3 19 -7 -3 -20 2 -27 11
-13 7 11 29 15 80 16 61 0 71 -2 76 -20 6 -19 7 -19 24 4 13 17 19 20 23 9 5
-12 7 -12 15 0 5 7 15 10 21 6 7 -4 22 4 35 20 l23 27 21 -26 20 -26 7 50 c7
49 8 51 26 34 10 -9 16 -21 13 -25 -3 -5 0 -9 5 -9 6 0 11 4 11 9 0 5 17 4 40
-1 22 -6 40 -15 40 -20 0 -6 5 -6 14 1 16 13 42 6 50 -15 8 -21 26 -17 52 11
24 26 54 34 54 14 0 -6 7 -9 15 -5 8 3 15 1 15 -4 0 -5 10 -10 23 -12 14 -2
23 -11 25 -25 3 -20 6 -22 25 -11 12 6 27 18 34 27 10 14 12 13 18 -9 5 -22
12 -25 53 -27 26 -1 50 3 54 10 5 8 13 8 33 -1 42 -19 51 -14 23 16 -35 36
-40 66 -11 70 20 3 21 7 16 51 -5 43 -2 51 26 83 17 20 44 62 60 93 23 45 27
63 21 90 -9 38 -30 71 -59 91 -12 9 -21 21 -21 29 0 8 -13 24 -29 36 -41 30
-84 129 -72 163 6 14 6 28 2 30 -5 3 -11 20 -15 37 -3 17 -15 42 -26 56 -23
29 -25 51 -9 87 10 20 8 32 -10 66 -11 22 -21 56 -21 75 0 18 -4 36 -8 39 -5
3 -7 18 -4 34 2 16 -1 33 -7 36 -21 14 -12 65 14 81 14 8 37 23 53 32 27 18
55 30 127 56 32 11 60 12 143 4 80 -8 109 -7 130 3 15 7 45 12 67 11 22 -1 80
11 130 27 99 33 115 27 76 -27 -23 -31 -30 -124 -11 -136 7 -4 9 10 6 39 -3
25 -1 48 4 51 4 3 11 17 15 32 3 14 25 43 48 64 23 21 36 38 28 39 -11 0 -11
3 -1 15 25 30 0 27 -30 -4 -30 -29 -59 -43 -45 -21 10 16 -5 12 -36 -11 -36
-26 -119 -49 -176 -49 -25 0 -67 12 -106 30 -36 16 -72 30 -80 30 -7 0 -21 8
-30 18 -23 25 -6 47 63 81 30 15 55 32 58 39 7 21 -79 14 -158 -13 -40 -14
-87 -25 -104 -25 -29 0 -63 -15 -146 -61 -40 -22 -107 -25 -157 -7 -26 10 -33
18 -33 39 0 37 70 122 117 142 64 27 207 36 351 23 47 -5 82 -4 82 1 0 5 -18
26 -40 48 l-40 39 -47 -12 c-119 -29 -195 -24 -210 14 -3 9 -1 25 5 35 15 23
-1 34 -27 19 -11 -5 -29 -10 -41 -10 -12 0 -19 -4 -16 -8 3 -5 -13 -9 -34 -10
-22 -1 -68 -13 -103 -27 -50 -21 -133 -34 -157 -25 -3 1 -13 3 -23 5 -43 8
-61 67 -27 85 11 6 20 7 20 3 0 -4 4 -3 8 2 4 6 27 25 52 44 25 19 56 47 68
63 24 29 82 65 82 51 0 -5 4 -2 8 4 4 7 17 14 27 16 11 2 28 7 38 12 10 4 21
5 24 1 3 -3 12 -1 20 5 8 8 17 8 26 2 6 -5 41 -11 77 -13 36 -1 73 -3 82 -3 9
-1 14 -5 11 -10 -3 -5 4 -6 16 -2 11 3 21 2 21 -3 0 -5 20 -9 43 -9 69 -2 201
-53 166 -65 -19 -6 -3 -38 19 -38 22 0 46 23 35 33 -13 14 29 6 53 -9 41 -28
42 -4 0 31 -45 38 -44 62 4 71 23 5 30 12 30 31 0 25 -50 76 -99 102 -14 7
-43 24 -63 38 -22 15 -42 22 -50 17 -7 -4 -10 -4 -6 1 8 9 -94 56 -124 58 -10
1 -18 6 -18 11 0 5 -3 7 -6 3 -3 -3 -15 3 -27 14 -11 10 -27 19 -34 19 -7 0
-13 5 -13 11 0 5 -5 7 -12 3 -6 -4 -8 -3 -4 4 3 6 2 13 -4 17 -11 7 -14 46 -2
44 22 -4 52 2 52 10 0 8 -17 13 -88 27 -8 1 -21 6 -30 10 -9 4 -24 9 -32 10
-81 12 -290 81 -315 104 -11 9 -33 24 -50 31 -16 8 -30 21 -30 29 0 12 16 15
75 16 41 0 114 6 163 12 61 8 96 8 117 0 17 -5 37 -7 46 -4 8 3 22 2 32 -3 20
-11 132 -37 150 -35 6 1 12 -2 12 -6 0 -7 40 -25 47 -22 3 1 39 -28 102 -83
25 -23 62 -53 82 -67 20 -15 43 -42 52 -60 9 -18 28 -44 42 -58 15 -14 36 -42
48 -62 11 -21 24 -38 29 -38 4 0 7 -4 5 -8 -3 -11 25 -82 33 -82 7 0 7 -1 14
-80 3 -44 9 -59 33 -80 55 -49 103 -163 103 -244 0 -22 10 -51 25 -75 15 -22
23 -45 19 -54 -4 -12 1 -18 20 -23 38 -9 48 -26 33 -57 -6 -14 -21 -31 -32
-36 -17 -8 -13 -10 20 -11 44 -1 65 -13 84 -47 6 -13 20 -23 30 -23 21 0 46
-66 44 -120 -2 -50 -37 -123 -77 -158 -45 -39 -115 -65 -165 -60 -31 3 -37 1
-29 -9 6 -7 20 -13 32 -13 15 0 17 -3 8 -9 -13 -8 -24 -73 -26 -148 0 -24 -3
-43 -7 -43 -11 0 -19 -110 -20 -295 0 -99 -5 -200 -10 -225 -6 -24 -12 -107
-15 -184 -3 -78 -10 -146 -16 -153 -6 -8 -8 -16 -5 -20 4 -3 9 2 13 11 3 9 11
16 16 16 6 0 8 -6 5 -14 -3 -8 0 -38 7 -68 14 -62 11 -270 -5 -332 -6 -22 -12
-102 -13 -176 0 -77 -5 -138 -11 -142 -6 -5 -5 -8 4 -8 10 0 12 -8 7 -32 -3
-18 -11 -35 -16 -38 -5 -3 -4 -17 5 -33 15 -29 10 -87 -7 -87 -5 0 -5 -7 0
-17 14 -28 3 -103 -15 -103 -12 0 -14 20 -10 129 3 71 8 134 12 140 3 6 3 17
-2 24 -11 18 -12 36 -2 43 5 3 9 20 8 37 l0 32 -15 -39 c-19 -52 -21 -53 -42
-28 -11 12 -22 19 -26 15 -3 -4 -15 3 -26 15 -12 12 -16 23 -10 27 6 3 10 14
10 24 0 14 6 17 24 14 13 -3 27 0 30 6 4 6 2 11 -4 11 -6 0 -8 10 -4 26 4 17
2 29 -6 34 -18 11 -40 1 -33 -16 3 -8 1 -15 -3 -15 -56 -7 -74 -7 -71 0 1 5
-1 9 -5 10 -29 4 -28 -4 7 -39 21 -21 42 -37 47 -34 4 3 8 1 8 -4 0 -16 -31
-23 -46 -11 -10 8 -14 8 -14 0 0 -6 5 -11 11 -11 8 0 8 -5 -1 -15 -18 -22 -51
-19 -57 5 -6 22 -18 26 -28 10 -11 -17 -28 -11 -20 8 5 14 4 15 -6 5 -15 -15
-43 -17 -34 -3 3 6 -3 10 -15 10 -13 0 -24 9 -30 26 -13 33 -13 34 8 28 15 -5
15 -4 1 8 -8 7 -24 25 -33 41 -10 15 -23 27 -30 27 -6 0 -4 -5 4 -10 13 -9 13
-11 0 -19 -12 -9 -12 -11 2 -16 14 -6 15 -10 6 -25 -9 -14 -16 -16 -30 -9 -10
6 -22 8 -27 5 -4 -3 -8 1 -8 9 0 8 5 11 10 8 6 -4 7 -1 2 6 -4 7 -16 11 -26 8
-11 -3 -16 -1 -13 4 3 5 -2 16 -11 25 -9 9 -14 22 -11 29 2 7 -4 21 -16 31
-18 17 -21 17 -31 3 -7 -9 -18 -14 -24 -12 -7 3 -13 0 -13 -5 0 -6 -10 -8 -21
-5 -21 6 -21 5 -5 -19 13 -20 14 -30 5 -58 -9 -25 -9 -37 0 -52 17 -27 6 -35
-18 -14 -12 11 -17 25 -13 38 3 13 -1 24 -12 30 -9 5 -16 18 -16 28 0 11 -4
20 -9 20 -4 0 -20 18 -35 41 -22 33 -30 38 -42 28 -12 -10 -14 -6 -14 24 0 31
-20 67 -38 67 -3 0 -16 -9 -28 -21 l-22 -20 -22 36 c-13 20 -32 40 -43 44 -21
8 -77 -7 -77 -20 0 -4 -9 -5 -20 -2 -11 3 -20 0 -20 -6 0 -6 11 -13 24 -17 20
-5 25 -14 31 -52 4 -26 13 -57 20 -69 23 -35 5 -128 -25 -128 -8 0 -24 -17
-35 -37 l-21 -38 -18 40 c-16 37 -46 59 -32 25 3 -8 1 -15 -5 -15 -6 0 -13 9
-16 21 -4 12 -11 18 -20 15 -10 -4 -13 0 -11 16 2 11 -3 23 -10 26 -9 3 -11
-4 -7 -25 5 -23 4 -25 -5 -10 -6 9 -9 35 -7 57 2 22 1 40 -3 40 -4 0 -7 6 -7
13 0 6 -3 22 -7 34 -6 18 -4 22 8 17 11 -4 15 -1 13 7 -2 8 -2 11 0 7 2 -4 11
-4 18 -2 9 4 16 -3 19 -18 13 -64 17 -85 20 -103 4 -22 20 -22 43 0 17 18 29
19 39 4 5 -8 10 -7 16 4 11 20 -9 53 -70 117 -32 34 -45 42 -51 32 -6 -11 -11
-10 -25 3 -9 9 -16 25 -16 35 0 20 -32 44 -44 33 -13 -13 -52 45 -46 72 1 5
-7 15 -17 23 -12 9 -14 15 -6 20 13 8 20 82 9 101 -5 7 -19 11 -32 8 -14 -2
-27 0 -30 4 -12 20 -24 7 -22 -23 l3 -33 -62 -2 c-49 -1 -65 2 -78 17 -13 14
-22 17 -35 10 -13 -7 -23 -3 -40 15 -21 23 -25 24 -41 9 -18 -16 -36 -4 -23
17 4 7 1 10 -7 7 -8 -3 -13 -11 -11 -18 2 -10 -1 -11 -10 -3 -9 7 -24 4 -52
-11 -50 -26 -54 -39 -19 -56 16 -8 56 -35 90 -60 64 -47 92 -85 74 -103 -9 -9
-101 -12 -161 -5 -48 6 -32 -26 35 -70 104 -68 100 -98 -13 -94 -37 1 -81 4
-98 6 -34 5 -148 59 -177 84 -27 24 -45 1 -27 -35 7 -16 23 -59 34 -98 18 -59
20 -84 14 -162 -9 -117 -42 -189 -74 -162 -7 6 -25 45 -41 87 l-28 77 -11 -45
c-17 -68 -25 -90 -34 -90 -15 0 -39 61 -60 148 -11 46 -27 98 -34 116 -8 17
-20 56 -26 86 -21 96 -79 230 -100 230 -16 0 -36 -119 -31 -181 4 -51 -28
-230 -46 -258 -8 -13 -10 -21 -5 -17 6 3 13 2 16 -3 5 -7 119 -25 172 -26 29
0 48 -18 69 -65 10 -22 26 -42 36 -45 11 -4 19 -13 19 -21 0 -8 12 -27 26 -41
34 -34 63 -92 71 -139 4 -22 15 -51 25 -65 12 -16 20 -47 22 -82 4 -66 26
-104 66 -118 41 -15 77 -97 50 -114 -5 -3 -7 -18 -4 -34 4 -17 -1 -41 -12 -62
-9 -19 -17 -49 -15 -67 3 -51 -31 -99 -154 -215 -62 -60 -123 -126 -134 -147
-11 -21 -24 -47 -29 -57 -59 -113 -85 -182 -90 -239 -2 -35 -9 -64 -14 -64 -5
0 -8 -6 -6 -12 1 -7 -1 -23 -6 -35 -4 -12 -9 -39 -11 -60 -2 -21 -9 -63 -16
-93 -6 -30 -12 -68 -12 -85 1 -16 -3 -59 -8 -95 -13 -98 -18 -510 -6 -510 11
0 137 131 137 143 0 4 9 16 20 27 19 19 21 19 54 2 47 -23 56 -43 58 -139 l3
-83 40 0 c40 1 40 1 72 69 38 79 96 143 173 189 30 18 79 54 108 80 107 96
142 116 158 90 12 -20 33 -131 34 -179 0 -67 -31 -155 -77 -216 l-24 -33 809
0 810 0 4 25 c3 14 2 27 -2 30 -10 6 -19 102 -26 285 -3 85 -10 172 -15 193
-10 36 -11 37 -59 38 -28 1 -53 2 -57 3 -14 2 -86 60 -125 98 -36 37 -38 38
-85 28 -26 -5 -68 -16 -92 -24 -49 -18 -116 -21 -106 -6 3 5 0 7 -8 4 -12 -4
-99 60 -117 86 -6 10 -88 46 -117 53 -28 6 -173 -13 -173 -23 0 -11 -51 -30
-88 -33 -17 -1 -32 -6 -32 -10 0 -5 -4 -6 -9 -2 -5 3 -12 1 -16 -5 -11 -18
-45 -11 -66 14 -16 19 -35 26 -83 31 -63 7 -145 40 -153 63 -9 21 -92 65 -113
59 -32 -8 -25 31 16 93 20 30 43 68 51 85 16 32 122 145 136 145 5 0 20 9 34
20 14 11 32 20 40 20 22 0 148 64 181 92 24 20 45 26 104 31 92 8 262 0 266
-13 2 -6 12 -10 21 -10 23 0 61 -39 40 -41 -8 -1 -17 -1 -21 0 -4 0 -5 -5 -3
-12 3 -7 24 -12 49 -12 47 0 76 -17 76 -45 0 -35 25 -42 117 -36 49 3 106 2
128 -2 37 -7 40 -10 38 -39 -2 -22 3 -36 16 -45 26 -18 61 -79 61 -105 0 -25
35 -53 67 -53 12 0 26 -7 31 -16 11 -20 31 -11 31 14 1 9 1 24 1 32 1 8 0 57
0 108 -2 81 -4 92 -20 92 -27 0 -37 19 -45 82 -7 60 -31 101 -78 139 -15 11
-27 27 -27 34 0 8 -15 21 -34 30 -19 9 -41 24 -50 34 -14 15 -23 16 -76 7 -54
-9 -62 -8 -80 10 -42 43 -46 151 -6 193 14 15 26 34 26 43 0 19 157 167 228
215 l54 35 34 -18 c19 -10 34 -24 34 -30 0 -6 13 -17 30 -24 16 -7 35 -18 41
-26 21 -25 24 -15 26 67 1 54 7 88 17 105 10 15 14 33 10 49 -5 19 -2 25 10
25 15 0 16 -9 9 -77 -4 -43 -7 -127 -8 -187 0 -60 -2 -101 -4 -91 -2 13 -5 15
-11 5 -5 -7 -3 -21 3 -31 9 -14 7 -22 -7 -37 -12 -14 -14 -22 -6 -27 6 -4 8
-16 4 -28 -10 -32 -16 -94 -14 -160 0 -40 -4 -62 -15 -73 -17 -17 -20 -44 -5
-44 6 0 10 -7 10 -15 0 -8 -6 -12 -15 -9 -11 5 -14 -3 -11 -38 1 -24 5 -49 9
-55 4 -6 3 -14 -1 -17 -5 -3 -6 -27 -2 -53 4 -26 4 -58 -1 -71 -6 -15 -5 -21
1 -17 6 4 10 -14 11 -47 0 -29 2 -66 3 -83 2 -16 -1 -35 -6 -41 -25 -34 54
-72 88 -43 9 8 24 14 33 14 8 0 17 8 19 18 2 10 -3 17 -11 17 -17 0 -28 46
-21 86 19 113 26 138 41 150 14 11 14 14 3 12 -10 -2 -14 4 -13 17 2 17 2 70
2 205 1 58 15 108 56 193 41 88 49 98 70 95 17 -2 33 7 53 28 19 21 48 37 88
48 32 9 71 21 86 25 28 9 89 -6 140 -34 15 -9 40 -14 56 -13 17 1 47 -7 68
-17 44 -23 164 -134 164 -152 0 -19 34 -49 79 -73 44 -22 93 -69 85 -82 -3 -4
1 -8 9 -8 19 0 60 -47 54 -62 -2 -7 -16 -20 -31 -27 -23 -13 -28 -12 -45 3
-12 11 -27 15 -42 11 -13 -3 -45 -2 -70 3 -38 7 -48 6 -56 -7 -13 -21 -48 -24
-93 -9 -53 18 -58 18 -63 -3 -3 -12 -14 -19 -30 -19 -34 0 -58 -10 -51 -21 3
-5 0 -9 -5 -9 -6 0 -11 5 -11 11 0 5 -4 8 -9 4 -5 -3 -29 1 -53 9 l-43 15 -56
-58 c-69 -70 -142 -114 -186 -112 -25 1 -38 -5 -55 -26 -13 -15 -38 -42 -55
-60 -29 -28 -33 -38 -33 -87 0 -38 4 -56 13 -57 6 0 23 -2 37 -5 14 -2 44 -5
67 -7 24 -2 51 -11 60 -19 10 -9 34 -23 53 -30 37 -16 72 -48 51 -48 -23 0
-56 -51 -57 -89 l0 -38 95 -11 c53 -6 136 -15 186 -20 88 -10 90 -11 126 -50
48 -54 118 -112 135 -112 8 0 14 9 14 20 0 10 4 29 9 42 5 13 14 43 21 68 31
115 200 487 289 635 20 33 53 96 75 140 50 105 108 205 118 205 17 0 6 -38
-27 -93 -19 -32 -35 -64 -35 -71 0 -8 -7 -19 -15 -26 -8 -7 -15 -18 -15 -24 0
-18 -130 -268 -151 -292 -11 -11 -19 -31 -19 -45 0 -13 -10 -44 -21 -69 -28
-60 -79 -221 -68 -214 5 3 9 9 9 14 0 24 185 332 231 384 21 24 -40 -117 -73
-168 -21 -33 -43 -78 -49 -100 -6 -23 -22 -71 -36 -108 -13 -37 -22 -72 -19
-77 3 -5 -11 -24 -32 -43 -20 -18 -45 -45 -54 -59 -14 -23 -15 -29 -3 -46 12
-17 12 -28 -2 -74 -24 -84 -35 -109 -44 -109 -19 0 -7 -38 20 -64 16 -15 28
-37 27 -49 -1 -12 6 -28 16 -35 10 -7 18 -20 18 -28 0 -17 -26 -19 -37 -1 -11
17 -71 49 -81 43 -9 -5 -27 -78 -36 -146 -3 -19 -12 -61 -19 -93 l-14 -57 147
0 c134 0 149 2 165 20 27 29 6 46 -66 53 -35 3 -68 12 -77 21 -14 13 -12 18
15 43 17 15 79 54 139 86 86 45 117 57 153 57 60 0 121 17 121 34 0 7 -28 28
-62 46 -35 19 -75 42 -90 53 -19 14 -46 21 -84 22 -56 2 -77 15 -67 41 3 7 23
14 46 16 37 3 68 28 34 28 -8 0 -20 6 -26 13 -8 11 5 23 62 58 108 66 114 69
160 75 42 6 43 7 39 37 -6 38 -79 127 -104 127 -10 0 -18 7 -18 15 0 8 5 15
11 15 5 0 7 4 4 10 -3 5 -3 10 2 11 4 0 26 2 48 5 22 2 68 6 103 10 34 3 62
10 62 15 0 5 -12 16 -27 26 -57 35 -114 85 -128 113 -14 27 -13 29 5 35 11 4
44 4 73 0 28 -3 100 -7 158 -9 58 -2 115 -9 127 -15 26 -14 94 -15 72 -1 -13
8 -12 11 5 23 10 8 25 12 33 10 8 -3 15 3 19 15 8 31 64 38 111 14 38 -20 192
-54 192 -43 0 3 -12 42 -27 86 -25 73 -27 95 -29 245 -3 209 -12 320 -29 354
-8 15 -10 26 -4 26 6 0 7 5 4 10 -13 21 -22 8 -22 -30 0 -22 -6 -46 -12 -54
-6 -8 -10 -18 -9 -22 5 -14 -56 -124 -68 -124 -6 0 -21 -11 -34 -25 -13 -14
-29 -24 -36 -21 -7 3 -15 -6 -18 -18 -7 -30 -104 -130 -139 -144 -27 -11 -27
-11 -16 11 11 20 11 21 -4 8 -10 -7 -17 -22 -17 -31 0 -10 -25 -40 -55 -66
-77 -65 -82 -58 -66 98 9 84 10 141 3 181 -15 94 15 204 92 337 35 62 66 130
66 146 0 2 -7 4 -15 4 -8 0 -32 -24 -54 -52 -56 -76 -187 -208 -206 -208 -9 0
-38 -7 -66 -16 -65 -21 -79 -15 -79 36 0 49 26 134 46 151 8 6 14 20 14 30 0
26 115 138 183 179 132 78 177 95 192 70 3 -6 19 -17 35 -25 23 -12 34 -13 49
-4 10 7 26 9 35 6 23 -9 20 -38 -4 -44 -33 -9 -19 -36 30 -61 27 -14 45 -29
45 -40 0 -27 38 -73 62 -75 12 0 20 -4 17 -8 -5 -8 27 -23 41 -20 6 2 7 -1 2
-5 -11 -11 73 -86 90 -80 8 3 12 2 9 -3 -9 -13 124 -73 148 -67 12 3 30 21 39
41 20 41 40 45 63 10 9 -14 21 -22 27 -18 5 3 7 1 4 -5 -9 -14 3 -43 14 -36 5
3 7 -1 4 -8 -3 -7 -1 -19 4 -27 8 -12 15 -12 48 0 35 14 38 18 43 61 3 26 14
56 24 67 16 17 18 31 12 83 -7 69 -13 81 -27 55 -14 -25 -26 -13 -34 33 -4 22
-11 43 -16 46 -15 9 -39 -16 -39 -42 0 -32 -14 -37 -56 -19 -33 13 -39 13 -70
-1 -34 -16 -35 -16 -77 12 -50 34 -66 53 -67 77 0 19 -4 19 -102 17 -53 -1
-76 4 -117 25 -29 14 -57 23 -62 19 -6 -3 -24 8 -40 26 -25 27 -35 31 -61 26
-36 -7 -134 17 -181 44 -27 16 -59 21 -153 26 -134 5 -122 5 -187 -2 -44 -6
-52 -3 -80 24 -33 30 -54 33 -121 16 -24 -6 -33 -2 -62 30 -19 20 -34 40 -34
44 0 16 -45 27 -72 18 -33 -12 -53 3 -64 48 -6 27 -6 28 16 16 15 -8 20 -8 16
-1 -4 6 10 29 32 50 21 21 42 46 45 55 4 9 14 19 24 23 10 4 28 20 42 35 25
30 89 68 116 68 31 0 14 16 -43 38 -31 13 -72 35 -90 49 -24 18 -36 22 -46 14
-8 -7 -23 -7 -47 -1 -46 14 -47 13 -42 -14 3 -16 10 -23 19 -19 11 4 12 8 3
19 -10 12 -9 13 5 8 9 -3 16 -11 16 -16 0 -6 12 -8 30 -4 19 3 29 2 25 -4 -3
-5 0 -7 8 -4 10 3 17 -4 21 -22 10 -38 -2 -43 -29 -11 -27 30 -35 33 -35 14 0
-9 -14 -14 -45 -14 -25 0 -50 -4 -56 -10 -13 -13 -72 13 -64 28 4 5 -1 9 -10
9 -9 0 -14 -4 -10 -9 3 -5 -2 -16 -11 -25 -17 -18 -35 -71 -26 -80 3 -3 25 -6
49 -6 24 0 43 -4 43 -9 0 -5 -34 -9 -75 -9 -52 0 -75 4 -75 12 0 8 -11 11 -31
8 -23 -3 -34 1 -46 18 -15 21 -16 21 -38 -35 -28 -68 -31 -71 -48 -56 -12 9
-23 0 -58 -46 -24 -32 -45 -67 -46 -78 -6 -39 -26 -63 -64 -78 -23 -9 -39 -22
-39 -32 0 -9 -7 -30 -16 -47 -12 -23 -18 -27 -24 -17 -5 7 -4 21 1 30 14 28
11 47 -13 69 -25 23 -38 26 -38 6 0 -7 -7 -20 -16 -27 -14 -11 -18 -10 -27 6
-6 11 -11 29 -12 40 0 13 -8 21 -23 23 -14 2 -20 8 -15 15 3 7 -3 3 -15 -7
-14 -12 -22 -31 -22 -50 0 -17 -4 -46 -9 -63 -5 -18 -13 -106 -16 -195 -4 -90
-9 -166 -12 -170 -2 -5 -4 -40 -5 -79 0 -71 -30 -154 -53 -149 -6 1 -9 6 -8
10 2 5 5 75 8 157 3 81 8 173 10 203 2 30 7 101 10 158 2 57 8 109 12 115 4 7
8 35 8 62 1 28 5 94 10 147 6 81 5 101 -8 121 -25 39 -1 103 35 93 12 -3 22 2
26 12 3 9 12 23 19 30 7 7 13 24 13 37 0 13 4 26 9 30 5 3 7 28 5 55 -4 45 -2
53 25 83 34 36 37 42 81 182 17 55 35 107 40 116 4 9 13 34 19 55 6 22 17 48
26 59 8 11 31 46 50 78 92 151 108 175 148 209 23 21 48 38 56 38 8 0 22 6 30
14 9 8 55 34 103 59 48 24 84 48 80 52 -4 4 7 4 25 1 24 -6 34 -3 41 10 6 10
16 15 26 11 10 -4 16 -1 16 7 0 18 27 28 34 13 3 -9 5 -9 5 0 1 14 81 56 81
43 0 -5 12 -3 27 5 20 10 31 11 40 3 9 -7 13 -7 13 1 0 7 4 10 9 6 5 -3 12 -1
16 5 3 5 17 7 29 4 15 -3 25 0 29 8 7 19 -40 126 -72 164 -14 17 -39 48 -54
68 -16 21 -41 42 -55 49 -15 6 -38 19 -51 29 -21 16 -71 25 -71 13 0 -10 48
-74 53 -69 8 8 37 -87 35 -113 -2 -21 -18 -34 -18 -15 0 4 -21 18 -48 32 -26
13 -60 34 -77 46 -38 28 -101 54 -130 54 -29 0 -39 -13 -61 -82 -18 -58 -36
-73 -48 -40 -15 40 -88 142 -85 117 3 -21 -2 -29 -10 -17 -6 10 -23 -3 -63
-47 -54 -57 -55 -61 -56 -118 -1 -43 7 -77 30 -133 17 -41 36 -78 44 -83 18
-10 8 -34 -35 -82 -20 -22 -47 -57 -60 -77 -12 -21 -26 -38 -31 -38 -5 0 -12
-10 -16 -22 -4 -13 -15 -34 -25 -48 -10 -14 -20 -40 -21 -59 -1 -18 -8 -36
-15 -38 -7 -3 -13 -9 -13 -15 0 -5 -11 -33 -24 -61 -13 -29 -27 -67 -30 -85
-13 -56 -29 -37 -22 26 7 71 8 161 1 272 -4 80 6 151 27 175 13 15 9 43 -8 53
-15 8 -15 17 -6 72 7 35 10 66 7 70 -5 8 22 217 30 230 3 5 6 26 7 47 1 20 12
52 25 71 13 19 23 39 23 44 0 5 7 20 16 33 l16 25 34 -26 c43 -33 43 -26 -1
31 -19 26 -32 52 -28 60 7 21 52 30 74 16 24 -14 73 -15 64 0 -4 6 -41 27 -84
47 -85 42 -132 71 -144 88 -4 7 -20 15 -36 19 -28 6 -28 7 -29 75 0 40 4 70
10 70 5 0 7 12 3 29 -3 17 -2 32 4 36 6 3 11 -2 11 -12 1 -17 1 -17 11 0 6 10
8 21 5 24 -8 8 13 33 27 33 6 0 2 -7 -9 -15 -10 -8 -14 -15 -7 -15 16 0 53 48
53 69 0 23 20 41 43 41 15 0 18 -5 13 -25 -5 -18 0 -34 15 -54 12 -16 19 -34
15 -39 -9 -15 4 -42 20 -42 12 0 12 -4 -1 -23 -8 -13 -12 -27 -8 -31 5 -4 1
-6 -7 -4 -11 2 -15 -6 -16 -29 -1 -23 -10 -39 -33 -58 -17 -15 -29 -31 -25
-36 3 -5 0 -9 -7 -9 -25 0 6 -17 55 -30 27 -7 75 -31 108 -53 l59 -39 37 26
c21 14 42 26 46 26 4 0 21 9 37 21 16 11 38 22 50 24 30 6 34 12 22 38 -6 13
-9 35 -6 49 3 14 0 29 -6 32 -14 9 27 66 48 66 14 0 14 -1 1 -10 -13 -8 -12
-10 3 -10 9 0 17 6 17 14 0 8 14 19 30 25 26 8 30 14 25 34 -4 16 -2 26 8 30
11 4 13 15 7 46 -6 33 -4 43 8 50 15 8 15 12 2 37 -8 16 -23 37 -33 47 -12 12
-17 28 -14 43 3 15 0 24 -8 24 -15 0 -39 56 -37 86 1 11 -8 31 -20 44 -13 14
-22 28 -21 32 2 5 -6 8 -16 8 -11 0 -26 9 -34 20 -8 11 -17 17 -20 13 -4 -3
-7 -2 -8 3 -1 15 -7 38 -14 55 -7 19 25 28 74 21 24 -3 31 -9 31 -27 0 -26 48
-71 61 -58 12 12 -14 80 -28 76 -6 -2 -27 10 -46 27 -35 30 -36 31 -47 10 -16
-29 -30 -25 -30 9 0 41 -13 45 -38 11 -20 -26 -24 -28 -52 -17 -16 6 -30 17
-30 23 0 7 -16 23 -36 35 l-37 22 -19 -23 c-22 -27 -45 -20 -63 19 -14 30 -51
25 -47 -6 2 -15 -2 -23 -12 -23 -43 0 -64 33 -26 43 11 3 22 17 26 33 3 16 13
34 22 41 13 11 11 14 -12 23 -15 5 -25 14 -22 19 17 27 -100 49 -126 23 -16
-16 -2 -42 24 -42 23 -1 22 -1 -5 -25 -30 -27 -44 -30 -67 -15 -12 8 -11 10 8
10 15 0 22 6 22 20 0 11 -7 20 -15 20 -8 0 -15 7 -15 15 0 8 -10 20 -22 26
-13 7 -27 18 -31 25 -4 8 -15 14 -23 14 -12 0 -14 -7 -9 -31 5 -21 4 -29 -3
-25 -6 3 -12 0 -15 -6 -3 -10 -15 -7 -44 10 -79 43 -105 22 -107 -84 -1 -34
-4 -60 -9 -57 -4 2 -10 -3 -13 -11 -14 -36 -40 -15 -79 62 -36 70 -63 110
-116 168 -10 12 -19 27 -19 34 0 6 -37 48 -82 93 -46 45 -82 85 -81 89 1 3 -5
12 -14 20 -14 11 -16 11 -8 -2 5 -9 5 -12 -1 -7 -5 5 -9 12 -9 15 0 4 -30 50
-67 102 -36 53 -72 109 -80 125 -7 17 -15 32 -18 35 -39 34 -65 120 -41 134 5
4 48 -14 95 -39 83 -43 126 -55 126 -36 0 6 -4 13 -10 16 -5 3 -10 25 -10 49
0 23 -5 47 -11 53 -7 7 -14 46 -17 87 -4 66 -2 76 12 76 29 0 267 -254 309
-331 26 -46 53 -79 80 -98 23 -16 85 -70 137 -119 52 -50 96 -89 98 -87 2 2
-8 39 -23 83 -24 74 -26 88 -21 215 4 134 8 157 26 157 16 0 48 -41 70 -87 22
-47 44 -51 31 -5 -31 103 -43 180 -32 201 l12 22 28 -20 c39 -28 43 -34 99
-141 65 -124 113 -236 119 -274 3 -17 8 -35 13 -39 8 -9 6 73 -5 143 -4 29 -2
56 6 75 7 17 12 33 11 36 -4 18 41 -7 53 -30 7 -14 25 -38 38 -52 61 -64 104
-214 91 -322 -4 -42 -1 -74 12 -117 10 -33 20 -60 24 -60 3 0 11 19 17 43 41
154 73 216 155 299 50 51 73 68 93 68 l28 0 -5 -136 -5 -137 33 39 c19 21 41
51 50 65 9 14 30 33 48 42 31 16 94 32 82 20 -3 -3 -2 -11 4 -17 8 -11 0 -63
-29 -191 -5 -22 -8 -41 -7 -43 2 -1 17 9 34 23 30 25 95 46 91 29 -2 -9 2 -23
22 -71 5 -13 17 -23 27 -23 20 0 68 -45 86 -81 11 -23 74 -47 131 -51 17 -1
50 -15 74 -32 35 -23 56 -30 99 -30 46 -1 57 3 73 24 56 71 85 100 96 96 7 -3
35 2 62 10 49 14 52 14 103 -13 29 -15 58 -32 65 -39 6 -6 43 -14 83 -18 59
-5 75 -3 95 11 13 10 25 24 25 31 0 6 4 12 9 12 5 0 13 10 17 23 13 43 39 67
77 73 20 4 40 10 43 15 2 4 11 6 19 2 8 -3 23 -2 32 2 32 14 46 14 72 1 41
-21 112 -7 127 24 31 64 34 95 19 148 -9 28 -20 54 -25 57 -6 3 -10 23 -10 43
0 35 -3 39 -42 52 -36 13 -44 20 -51 53 -6 23 -20 45 -38 58 -28 19 -29 24
-23 65 5 38 3 48 -20 75 -14 17 -26 41 -26 53 0 28 -23 50 -73 71 -43 18 -61
43 -78 105 -11 41 -10 50 10 88 12 24 38 52 61 67 52 33 59 50 53 122 -9 95
-1 110 65 140 68 31 92 50 92 74 0 28 28 49 68 50 50 1 128 56 124 88 -2 12 4
43 13 70 13 39 13 53 4 75 -7 14 -20 26 -29 26 -32 0 -60 43 -60 92 0 25 -7
59 -15 74 -8 16 -15 37 -15 46 0 11 -17 25 -45 37 -25 11 -45 24 -45 29 0 5
-8 12 -19 15 -12 3 -24 24 -36 61 -17 54 -17 58 0 96 16 36 17 45 5 81 -14 41
-14 42 17 68 17 14 51 38 76 53 60 35 75 61 69 121 l-4 47 -3354 0 -3354 0 0
-2216z m4330 -364 c0 -5 -2 -10 -4 -10 -3 0 -8 5 -11 10 -3 6 -1 10 4 10 6 0
11 -4 11 -10z m-38 -52 c-7 -7 -12 -20 -12 -30 0 -14 -8 -18 -31 -18 l-32 0
24 24 c21 20 41 32 59 35 2 1 -1 -4 -8 -11z m-102 -22 c0 -11 -19 -15 -25 -6
-3 5 1 10 9 10 9 0 16 -2 16 -4z m35 -106 c3 -6 -1 -7 -9 -4 -18 7 -21 14 -7
14 6 0 13 -4 16 -10z m95 -6 c0 -9 -5 -14 -12 -12 -18 6 -21 28 -4 28 9 0 16
-7 16 -16z m35 -44 c0 -13 8 -26 17 -29 14 -5 14 -9 4 -24 -8 -9 -20 -15 -27
-12 -20 7 -40 -39 -25 -57 6 -7 7 -9 2 -5 -5 4 -15 2 -21 -3 -8 -7 -22 -5 -42
5 -24 12 -29 20 -26 39 6 31 34 42 50 21 6 -10 16 -15 21 -11 12 7 2 66 -12
66 -6 0 0 9 14 20 31 24 45 21 45 -10z m45 -141 c0 -12 -8 -23 -19 -26 -11 -3
-22 -16 -25 -29 -6 -23 -26 -34 -26 -14 0 6 5 10 10 10 6 0 10 6 9 13 -3 16
12 50 25 59 18 13 26 9 26 -13z m-223 -46 c-9 -9 -20 -13 -24 -9 -4 4 1 14 11
22 25 18 35 8 13 -13z m83 -2 c0 -9 -71 -84 -75 -79 -1 2 -5 13 -9 24 -5 18 0
25 31 42 43 23 53 26 53 13z m60 -39 c0 -5 -6 -17 -14 -28 -17 -23 -41 -8 -30
19 6 17 44 24 44 9z m-3301 -81 c5 -20 12 -99 15 -176 5 -129 22 -261 47 -360
18 -71 27 -140 19 -148 -7 -8 23 -95 52 -154 12 -23 4 -43 -17 -43 -7 0 -16
-6 -19 -12 -5 -10 -7 -10 -12 0 -3 6 -14 12 -25 12 -10 0 -19 3 -19 8 0 17
-98 108 -133 125 -46 20 -55 21 -39 5 40 -40 -25 -52 -89 -16 -22 12 -39 25
-39 29 0 4 -10 10 -22 15 -19 6 -16 8 19 11 26 3 54 -2 73 -12 18 -9 34 -15
36 -12 7 6 -122 133 -178 175 -29 22 -66 53 -81 70 -28 29 -28 29 -7 35 12 3
32 2 45 -3 13 -5 26 -6 30 -2 3 3 9 1 14 -6 4 -6 19 -13 34 -14 15 -1 27 -6
27 -11 0 -4 4 -6 9 -3 5 4 11 2 13 -3 1 -5 10 -11 18 -13 8 -2 37 -25 63 -53
l48 -50 -7 78 c-5 62 -4 81 8 95 13 13 14 32 9 92 -10 121 15 364 43 408 11
18 55 -27 65 -67z m3391 54 c9 -11 10 -25 4 -46 -12 -39 -27 -39 -36 2 -10 52
6 75 32 44z m-63 -50 c1 -30 -2 -35 -21 -35 -12 0 -27 -5 -34 -12 -17 -17 -15
-1 6 35 16 30 31 47 42 47 3 0 6 -16 7 -35z m-104 -7 c-6 -7 -13 -24 -15 -37
-3 -27 -28 -42 -28 -17 0 9 7 33 15 53 12 27 18 34 27 25 8 -8 8 -15 1 -24z
m229 5 c25 -23 23 -45 -4 -41 -17 2 -24 11 -26 31 -4 31 4 34 30 10z m-99 -85
c-13 -12 -26 -18 -30 -14 -4 4 1 14 11 22 31 22 43 17 19 -8z m174 -52 c14
-16 18 -28 12 -37 -8 -11 -13 -10 -28 9 -22 25 -41 29 -41 7 0 -8 -4 -15 -10
-15 -15 0 -12 47 3 53 26 11 44 6 64 -17z m-1217 -36 c-20 -13 -33 -13 -25 0
3 6 14 10 23 10 15 0 15 -2 2 -10z m-215 -72 c-11 -36 -29 -49 -73 -55 -33 -4
-43 -2 -48 11 -4 10 -1 23 5 29 15 16 70 35 99 36 20 1 22 -3 17 -21z m1546
12 c23 -13 25 -38 3 -47 -14 -5 -64 35 -64 52 0 9 40 6 61 -5z m99 -60 c0 -21
-33 -29 -45 -10 -9 15 4 30 26 30 12 0 19 -7 19 -20z m-253 -34 c-4 -10 -13
-13 -23 -9 -15 6 -15 7 1 20 21 15 30 10 22 -11z m89 -13 c-10 -10 -19 5 -10
18 6 11 8 11 12 0 2 -7 1 -15 -2 -18z m-88 -40 c-5 -25 -28 -28 -28 -4 0 12 6
21 16 21 9 0 14 -7 12 -17z m202 -12 c0 -5 -7 -14 -16 -22 -13 -10 -17 -10
-24 1 -6 9 -4 17 3 22 16 10 37 10 37 -1z m-2970 -195 c0 -2 -7 -7 -16 -10 -8
-3 -12 -2 -9 4 6 10 25 14 25 6z m1020 -176 c0 -10 -62 -40 -69 -34 -2 2 4 13
14 24 19 21 55 27 55 10z m-1534 -116 c7 3 13 2 13 -2 -3 -19 3 -46 8 -34 7
18 33 -4 33 -29 0 -23 -16 -25 -24 -3 -4 10 -13 13 -26 9 -13 -4 -31 1 -50 15
-25 18 -28 24 -18 40 9 14 16 16 31 9 10 -6 25 -8 33 -5z m-172 -23 c40 -44
-15 -50 -107 -13 -46 18 -36 25 41 30 38 2 53 -2 66 -17z m3606 -32 c0 -6 -4
-7 -10 -4 -5 3 -10 11 -10 16 0 6 5 7 10 4 6 -3 10 -11 10 -16z m-123 -43 c-7
-14 -13 -23 -15 -21 -7 6 9 45 18 45 4 0 3 -11 -3 -24z m-3261 -23 c20 -7 84
-94 84 -114 0 -17 -19 -29 -48 -29 -26 0 -122 54 -122 68 0 7 -5 10 -10 7 -6
-3 -13 1 -16 9 -5 12 -22 16 -73 16 -117 0 -117 31 -1 49 60 9 156 6 186 -6z
m-261 -83 c28 -15 49 -18 78 -13 46 7 45 -10 0 -22 -16 -3 -40 -18 -55 -32
-14 -14 -31 -22 -37 -18 -6 3 -9 9 -7 13 2 4 -25 18 -60 32 -35 13 -64 27 -64
32 0 4 12 10 28 14 15 3 32 7 37 9 23 8 43 4 80 -15z m3115 -54 c0 -3 -4 -8
-10 -11 -5 -3 -10 -1 -10 4 0 6 5 11 10 11 6 0 10 -2 10 -4z m-1993 -22 c-3
-3 -12 -4 -19 -1 -8 3 -5 6 6 6 11 1 17 -2 13 -5z m-768 -25 c32 -19 33 -21
16 -40 -10 -10 -29 -19 -42 -19 -35 0 -61 -16 -78 -50 l-15 -29 -123 2 -122 2
41 42 c37 38 135 93 189 106 48 11 101 6 134 -14z m2748 -51 c-3 -8 -6 -5 -6
6 -1 11 2 17 5 13 3 -3 4 -12 1 -19z m-2667 -108 c22 -13 -6 -58 -47 -75 -18
-8 -33 -21 -33 -29 0 -25 -103 -24 -139 1 -9 6 49 51 93 73 25 12 48 26 52 31
7 12 55 11 74 -1z m2787 -102 c3 -47 4 -84 4 -163 0 -50 4 -92 10 -93 6 -3 5
-10 -2 -19 -7 -8 -13 -50 -15 -101 -1 -48 -2 -113 -3 -145 -1 -65 -15 -79 -57
-56 -24 12 -25 15 -18 88 3 42 10 84 15 93 5 9 9 32 9 50 0 18 7 69 14 113 8
44 16 112 17 150 2 74 6 95 18 95 4 0 8 -6 8 -12z m-3040 -24 c-16 -9 -31 -13
-34 -10 -3 3 5 10 18 15 37 15 47 12 16 -5z m1211 -341 c-10 -2 -26 -2 -35 0
-10 3 -2 5 17 5 19 0 27 -2 18 -5z m-1323 -261 c-6 -6 -45 33 -45 44 0 4 11
-3 25 -16 14 -13 23 -26 20 -28z m-385 3 c-7 -8 -16 -15 -21 -15 -5 0 -9 7 -9
15 0 9 9 15 21 15 18 0 19 -2 9 -15z m266 -27 l38 -22 -32 -8 c-31 -8 -45 -37
-19 -39 6 0 -1 -5 -17 -11 -25 -9 -31 -8 -47 13 -16 22 -16 26 -3 47 8 12 11
22 7 23 -6 0 13 11 34 18 1 1 19 -9 39 -21z m-109 -50 c1 -12 -6 -63 -17 -113
-10 -49 -21 -121 -25 -160 -3 -38 -8 -81 -10 -95 -20 -137 -45 -316 -49 -360
-14 -133 -27 -214 -37 -226 -6 -7 -8 -18 -4 -24 4 -7 -20 -8 -79 -4 -51 4 -86
3 -86 -2 0 -5 -18 -8 -40 -6 -42 4 -56 22 -17 22 43 0 47 11 62 155 4 43 15
108 20 125 1 3 5 22 9 43 5 20 12 37 16 37 16 0 22 -41 9 -56 -9 -11 -10 -17
-1 -23 7 -4 8 -12 2 -21 -6 -8 -10 -34 -10 -57 0 -32 -4 -43 -15 -43 -10 0
-15 -10 -15 -27 0 -16 -3 -44 -6 -65 -5 -30 -3 -38 14 -47 11 -6 33 -8 49 -5
28 6 29 7 26 67 -3 70 18 232 47 352 11 44 31 141 45 215 32 166 84 340 103
340 4 0 8 -10 9 -22z m1883 -33 c0 -24 -25 -23 -26 1 -1 15 3 21 12 17 8 -3
14 -11 14 -18z m-1685 -44 c3 -5 1 -12 -5 -16 -5 -3 -10 1 -10 9 0 18 6 21 15
7z m1685 -47 c6 -14 7 -30 4 -36 -4 -6 -1 -14 6 -18 10 -6 10 -15 0 -46 -13
-37 -13 -38 -22 -14 -5 14 -7 33 -4 42 2 10 0 16 -5 12 -5 -3 -9 15 -9 40 0
51 15 60 30 20z m-2030 6 c-20 -13 -33 -13 -25 0 3 6 14 10 23 10 15 0 15 -2
2 -10z m590 -10 c0 -5 8 -10 17 -10 16 0 53 -27 53 -40 0 -12 -53 -5 -58 8 -2
6 -8 10 -13 6 -5 -3 -9 2 -9 10 0 8 -8 20 -17 25 -16 9 -16 10 5 11 12 0 22
-4 22 -10z m-635 -20 c-3 -10 -1 -28 4 -39 9 -15 7 -20 -10 -24 -15 -4 -19 -2
-15 10 3 8 6 28 6 44 0 16 5 29 11 29 6 0 8 -8 4 -20z m28 -15 c-3 -9 -8 -14
-10 -11 -3 3 -2 9 2 15 9 16 15 13 8 -4z m2457 -56 c0 -20 -15 -26 -25 -9 -9
15 3 43 15 35 5 -3 10 -15 10 -26z m-50 1 c0 -5 -4 -10 -10 -10 -5 0 -10 5
-10 10 0 6 5 10 10 10 6 0 10 -4 10 -10z m-2453 -42 c-3 -7 -5 -2 -5 12 0 14
2 19 5 13 2 -7 2 -19 0 -25z m2463 -19 c0 -5 -7 -9 -15 -9 -15 0 -20 12 -9 23
8 8 24 -1 24 -14z m35 -39 c3 -5 1 -10 -4 -10 -6 0 -11 5 -11 10 0 6 2 10 4
10 3 0 8 -4 11 -10z m42 -47 c-3 -3 -14 0 -24 6 -17 10 -17 10 0 11 9 0 18 8
18 18 1 10 3 8 6 -6 3 -13 2 -26 0 -29z m-2544 4 c3 -7 -1 -21 -9 -32 -13 -17
-14 -17 -14 13 0 32 14 43 23 19z m2798 -40 c-10 -9 -11 -8 -5 6 3 10 9 15 12
12 3 -3 0 -11 -7 -18z m-201 -35 c-6 -2 -17 2 -26 9 -12 10 -12 14 -2 20 8 6
18 2 26 -9 8 -11 9 -18 2 -20z m-2617 -24 c-7 -56 -23 -73 -23 -26 0 41 8 68
20 68 5 0 6 -19 3 -42z m2557 12 c0 -5 -5 -10 -11 -10 -5 0 -7 5 -4 10 3 6 8
10 11 10 2 0 4 -4 4 -10z m680 -75 c-7 -8 -16 -12 -21 -9 -13 8 -1 24 18 24
13 0 13 -3 3 -15z m-357 -25 c3 -11 13 -20 22 -20 9 0 13 -5 10 -11 -7 -11
-55 26 -55 43 0 16 18 7 23 -12z m154 -22 c-3 -8 -6 -5 -6 6 -1 11 2 17 5 13
3 -3 4 -12 1 -19z m-221 -40 c4 -7 4 -10 -1 -6 -4 4 -14 3 -22 -4 -15 -12 -28
-5 -18 11 9 15 32 14 41 -1z m268 -13 c-4 -8 -8 -15 -10 -15 -2 0 -4 7 -4 15
0 8 4 15 10 15 5 0 7 -7 4 -15z m122 -21 c-3 -7 -1 -16 4 -19 4 -3 11 1 13 7
3 7 4 -2 4 -19 -2 -36 -2 -36 -32 -23 -14 6 -15 9 -5 10 12 0 12 3 -3 14 -13
10 -16 21 -11 40 5 22 9 24 21 15 7 -7 12 -18 9 -25z m-406 -15 c0 -5 -4 -9
-10 -9 -5 0 -10 7 -10 16 0 8 5 12 10 9 6 -3 10 -10 10 -16z m2278 -96 c17 -3
32 -11 32 -19 0 -19 -39 -54 -80 -71 -89 -38 -232 -115 -275 -147 -25 -20 -51
-36 -56 -36 -5 0 -31 -13 -57 -30 -61 -37 -112 -41 -112 -7 0 49 72 132 219
249 l83 67 107 0 c58 0 121 -3 139 -6z m-5508 -202 c19 -4 55 -20 79 -36 l44
-29 -33 -14 c-18 -7 -50 -27 -71 -44 -56 -45 -71 -34 -98 70 -7 23 -25 56 -41
72 -17 17 -30 33 -30 35 0 3 26 -7 58 -21 31 -15 73 -30 92 -33z m6170 -111
c0 -5 -7 -10 -15 -10 -8 0 -15 5 -15 10 0 6 7 10 15 10 8 0 15 -4 15 -10z
m-5989 -886 c6 -34 18 -58 39 -77 30 -28 41 -67 18 -67 -15 1 -99 176 -98 205
0 37 31 -9 41 -61z m-271 -488 c0 -3 -4 -8 -10 -11 -5 -3 -10 -1 -10 4 0 6 5
11 10 11 6 0 10 -2 10 -4z m5080 -106 c0 -5 -2 -10 -4 -10 -3 0 -8 5 -11 10
-3 6 -1 10 4 10 6 0 11 -4 11 -10z m-5110 -37 c0 -15 2 -16 10 -3 8 13 10 12
10 -4 0 -11 5 -16 13 -13 10 4 13 -9 11 -54 -1 -44 2 -59 12 -59 20 0 17 -17
-7 -41 -19 -19 -22 -19 -44 -5 -25 16 -30 62 -7 71 6 2 12 10 12 17 0 9 -3 8
-10 -2 -7 -11 -10 -7 -10 18 0 17 -5 32 -10 32 -8 0 -9 34 -1 58 4 11 21 -2
21 -15z"/>
<path d="M8080 8286 c0 -7 9 -16 21 -19 20 -5 20 -5 3 14 -20 23 -24 23 -24 5z"/>
<path d="M8146 8285 c-3 -8 -1 -15 4 -15 6 0 10 7 10 15 0 8 -2 15 -4 15 -2 0
-6 -7 -10 -15z"/>
<path d="M8130 8250 c0 -5 7 -10 15 -10 8 0 15 5 15 10 0 6 -7 10 -15 10 -8 0
-15 -4 -15 -10z"/>
<path d="M8240 8200 c0 -5 5 -10 10 -10 6 0 10 5 10 10 0 6 -4 10 -10 10 -5 0
-10 -4 -10 -10z"/>
<path d="M8260 8140 c0 -6 7 -10 15 -10 8 0 15 2 15 4 0 2 -7 6 -15 10 -8 3
-15 1 -15 -4z"/>
<path d="M8210 8080 c-1 -8 -2 -19 -1 -23 1 -4 -7 -3 -18 2 -10 6 -21 7 -25 4
-3 -3 -6 -1 -6 5 0 7 -4 12 -10 12 -5 0 -10 -18 -10 -40 0 -38 -1 -40 -21 -30
-11 6 -33 8 -50 5 -18 -4 -29 -3 -29 4 0 6 5 11 10 11 6 0 10 7 10 15 0 8 -4
15 -9 15 -5 0 -14 -7 -21 -15 -7 -8 -20 -15 -29 -16 -11 0 -10 -3 5 -9 32 -12
37 -27 13 -33 -12 -3 -18 -10 -15 -15 7 -11 56 -13 56 -2 0 4 11 5 24 3 17 -4
23 -12 24 -34 1 -26 -2 -28 -31 -25 -20 2 -33 10 -35 20 -2 9 -7 16 -10 16
-17 -1 -42 -29 -41 -46 0 -11 3 -13 6 -6 7 17 26 15 50 -5 20 -18 20 -18 1
-48 l-19 -30 5 38 c5 29 3 37 -9 37 -8 0 -15 -7 -15 -15 0 -8 -6 -12 -14 -9
-9 3 -17 -3 -21 -15 -5 -18 -9 -19 -28 -9 -21 10 -21 10 -7 -7 11 -14 12 -19
3 -22 -7 -3 -13 -12 -13 -21 0 -13 -2 -14 -9 -4 -6 10 -11 10 -21 -3 -12 -14
-11 -18 1 -26 11 -7 11 -9 0 -9 -8 0 -11 -7 -8 -19 3 -14 1 -18 -9 -14 -8 3
-15 9 -15 14 -1 5 -3 14 -4 19 -1 6 -3 17 -4 25 0 8 -9 15 -18 14 -11 0 -13
-3 -5 -6 19 -8 15 -80 -5 -92 -12 -7 -13 -10 -4 -11 9 0 12 -9 9 -29 -2 -17
-1 -28 4 -25 4 3 8 -2 8 -10 0 -9 5 -16 10 -16 7 0 7 7 -1 21 -8 15 -8 24 0
32 13 13 18 9 23 -18 1 -11 11 -26 21 -34 18 -13 17 -14 -5 -38 -19 -20 -20
-25 -8 -33 14 -9 7 -14 -12 -11 -10 1 -10 -12 -2 -33 3 -9 11 -16 16 -16 6 0
6 6 -1 14 -9 10 -9 16 -1 21 15 9 16 7 28 -47 7 -34 6 -47 -2 -45 -6 1 -10 -6
-8 -17 3 -15 -2 -18 -27 -14 -32 5 -38 -5 -21 -32 5 -9 5 -19 -2 -27 -7 -9 -5
-17 7 -29 13 -13 14 -19 4 -25 -8 -4 -10 -11 -6 -15 12 -12 37 29 26 42 -23
28 20 64 45 39 15 -15 10 -59 -5 -49 -5 3 -9 0 -9 -6 0 -8 9 -10 25 -6 19 5
25 2 25 -9 0 -9 5 -13 10 -10 6 3 10 2 10 -4 0 -5 -5 -11 -11 -13 -7 -2 0 -17
15 -35 14 -17 26 -40 26 -50 0 -11 3 -23 7 -27 8 -7 9 -12 11 -53 1 -13 7 -23
12 -23 17 0 24 31 10 40 -18 11 -4 60 18 60 13 0 18 -10 19 -40 2 -22 -2 -40
-7 -40 -6 0 -10 -4 -10 -9 0 -6 9 -9 19 -8 11 0 17 5 15 9 -3 4 0 8 6 8 6 0 8
5 5 10 -3 6 -1 10 4 10 6 0 11 -7 11 -15 0 -8 4 -15 9 -15 6 0 6 12 0 32 -5
17 -6 34 -3 37 2 3 7 -5 11 -17 7 -30 37 -28 68 6 l25 27 -2 -27 c-1 -15 -9
-29 -19 -31 -9 -2 -18 -14 -21 -25 -4 -14 -2 -19 8 -15 7 3 12 10 11 16 -2 14
36 10 41 -4 2 -5 9 -3 16 4 17 18 21 168 4 179 -10 8 -10 11 0 15 6 2 12 14
12 26 0 16 -3 18 -12 9 -20 -20 -28 -13 -16 13 6 14 15 25 21 25 10 0 5 64 -8
94 -6 14 -5 17 3 12 7 -4 12 -1 12 9 0 9 -4 14 -8 11 -4 -2 -14 -1 -22 5 -12
7 -10 9 8 9 16 0 22 6 22 23 0 16 -3 18 -9 8 -5 -8 -11 -9 -15 -3 -3 5 1 13 9
16 13 5 16 28 14 148 0 81 -5 148 -11 156 -7 8 -7 16 1 26 14 17 12 98 -3 108
-7 5 -7 8 2 8 7 0 12 14 12 35 0 36 -12 43 -39 26 -9 -6 -21 -5 -32 2 -16 10
-16 12 -1 24 10 7 12 13 5 13 -6 0 -14 8 -16 18 -4 13 -5 13 -7 2z m-20 -71
c17 -31 7 -33 -20 -4 -19 20 -20 25 -7 25 9 0 21 -9 27 -21z m4 -63 c-6 -16
-34 -30 -34 -18 0 5 5 13 12 20 16 16 29 15 22 -2z m-54 -75 c0 -6 -4 -13 -10
-16 -5 -3 -10 -1 -10 5 0 7 -7 9 -16 6 -8 -3 -12 -2 -9 4 8 13 45 13 45 1z
m-151 -108 c-11 -13 -11 -17 -1 -20 17 -6 15 -16 -8 -31 -11 -7 -19 -8 -18 -3
2 5 -8 18 -21 30 -23 20 -23 21 -3 21 11 0 24 5 27 10 3 6 13 10 22 10 13 0
13 -2 2 -17z m191 -43 c0 -5 -5 -10 -11 -10 -5 0 -7 5 -4 10 3 6 8 10 11 10 2
0 4 -4 4 -10z m40 0 c0 -5 -4 -10 -10 -10 -5 0 -10 5 -10 10 0 6 5 10 10 10 6
0 10 -4 10 -10z m-230 -100 c0 -5 -7 -10 -15 -10 -8 0 -15 5 -15 10 0 6 7 10
15 10 8 0 15 -4 15 -10z m218 -175 c1 -20 -3 -25 -22 -25 -13 0 -26 7 -30 15
-4 10 1 15 14 15 11 0 20 5 20 10 0 22 16 8 18 -15z m72 -40 c10 -12 10 -15
-4 -15 -9 0 -16 7 -16 15 0 8 2 15 4 15 2 0 9 -7 16 -15z m-260 -46 c0 -4 -11
-14 -24 -23 -24 -15 -25 -15 -24 14 1 16 5 27 10 24 4 -3 8 3 8 12 0 16 1 16
15 -2 8 -10 15 -22 15 -25z m208 21 c-11 -18 -28 -27 -28 -16 0 6 30 36 36 36
2 0 -1 -9 -8 -20z m-298 -5 c0 -8 -4 -15 -10 -15 -5 0 -7 7 -4 15 4 8 8 15 10
15 2 0 4 -7 4 -15z m190 -25 c0 -5 -10 -10 -22 -10 -19 0 -20 2 -8 10 19 13
30 13 30 0z m-54 -98 c-11 -11 -36 22 -36 47 0 26 0 26 21 -8 11 -18 18 -36
15 -39z m-52 27 c-10 -16 -24 -9 -24 12 0 18 2 19 15 9 8 -7 12 -16 9 -21z
m146 21 c0 -5 -4 -10 -10 -10 -5 0 -10 5 -10 10 0 6 5 10 10 10 6 0 10 -4 10
-10z m-10 -40 c0 -5 -4 -10 -10 -10 -5 0 -10 5 -10 10 0 6 5 10 10 10 6 0 10
-4 10 -10z m-30 -10 c0 -5 -4 -10 -10 -10 -5 0 -10 5 -10 10 0 6 5 10 10 10 6
0 10 -4 10 -10z m-100 -10 c0 -5 -4 -10 -10 -10 -5 0 -10 5 -10 10 0 6 5 10
10 10 6 0 10 -4 10 -10z m203 -24 c20 -16 22 -25 3 -22 -19 3 -51 36 -34 36 7
0 21 -7 31 -14z m-23 -26 c0 -5 -4 -10 -10 -10 -5 0 -10 5 -10 10 0 6 5 10 10
10 6 0 10 -4 10 -10z m-20 -30 c0 -5 -5 -10 -11 -10 -5 0 -7 5 -4 10 3 6 8 10
11 10 2 0 4 -4 4 -10z m90 6 c0 -2 -7 -6 -15 -10 -8 -3 -15 -1 -15 4 0 6 7 10
15 10 8 0 15 -2 15 -4z m-70 -36 c0 -5 -4 -10 -10 -10 -5 0 -10 5 -10 10 0 6
5 10 10 10 6 0 10 -4 10 -10z m80 -50 c0 -5 -2 -10 -4 -10 -3 0 -8 5 -11 10
-3 6 -1 10 4 10 6 0 11 -4 11 -10z"/>
<path d="M7980 7960 c0 -5 5 -10 11 -10 5 0 7 5 4 10 -3 6 -8 10 -11 10 -2 0
-4 -4 -4 -10z"/>
<path d="M7940 7940 c0 -5 5 -10 11 -10 5 0 7 5 4 10 -3 6 -8 10 -11 10 -2 0
-4 -4 -4 -10z"/>
<path d="M7900 7851 c0 -5 -8 -12 -17 -15 -11 -3 -8 -4 6 -3 24 2 44 27 22 27
-6 0 -11 -4 -11 -9z"/>
<path d="M7834 7550 c6 -53 22 -56 28 -5 2 21 -2 30 -14 33 -15 3 -17 -2 -14
-28z"/>
<path d="M7825 7250 c3 -5 8 -10 11 -10 2 0 4 5 4 10 0 6 -5 10 -11 10 -5 0
-7 -4 -4 -10z"/>
<path d="M7936 7250 c-11 -3 -15 -9 -10 -13 10 -6 42 9 34 16 -3 3 -14 1 -24
-3z"/>
<path d="M8060 7115 c0 -8 5 -15 10 -15 6 0 10 7 10 15 0 8 -4 15 -10 15 -5 0
-10 -7 -10 -15z"/>
<path d="M7980 7106 c0 -8 5 -18 10 -21 6 -3 10 3 10 14 0 12 -4 21 -10 21 -5
0 -10 -6 -10 -14z"/>
<path d="M7977 7062 c-21 -4 -18 -27 4 -27 8 0 20 -4 27 -8 7 -5 12 -3 12 6 0
20 -21 34 -43 29z"/>
<path d="M8085 7030 c3 -5 17 -10 31 -10 13 0 24 5 24 10 0 6 -14 10 -31 10
-17 0 -28 -4 -24 -10z"/>
<path d="M8242 7019 c-7 -10 -12 -22 -12 -26 0 -5 5 -1 10 7 6 10 10 11 10 3
0 -7 9 -13 20 -13 17 0 18 -4 10 -25 -5 -14 -6 -27 0 -30 15 -9 22 14 15 54
-7 44 -35 60 -53 30z"/>
<path d="M4115 6031 c-3 -5 -1 -12 5 -16 5 -3 10 1 10 9 0 18 -6 21 -15 7z"/>
<path d="M3830 5762 c0 -5 7 -15 15 -22 8 -7 15 -8 15 -2 0 5 -7 15 -15 22 -8
7 -15 8 -15 2z"/>
<path d="M4550 5741 c0 -15 -7 -25 -20 -28 -20 -5 -20 -7 -4 -24 30 -34 45
-24 38 24 -8 48 -14 61 -14 28z"/>
<path d="M4436 5672 c-3 -3 -6 -12 -6 -19 0 -17 42 -14 47 3 4 12 -32 26 -41
16z"/>
<path d="M3684 5645 c10 -8 23 -12 28 -9 14 9 -2 24 -25 24 -21 -1 -21 -1 -3
-15z"/>
<path d="M4762 5638 c-17 -17 -15 -35 4 -42 23 -9 28 -2 17 29 -6 20 -11 23
-21 13z"/>
<path d="M4837 5627 c-4 -10 -7 -26 -7 -35 1 -15 2 -15 11 1 6 10 9 25 7 35
-3 16 -4 15 -11 -1z"/>
<path d="M4638 5596 c-21 -28 -13 -39 16 -24 28 14 27 13 20 32 -8 21 -16 20
-36 -8z"/>
<path d="M4935 5350 c-3 -5 -1 -10 4 -10 6 0 11 5 11 10 0 6 -2 10 -4 10 -3 0
-8 -4 -11 -10z"/>
<path d="M4920 5290 c0 -5 7 -10 15 -10 8 0 15 5 15 10 0 6 -7 10 -15 10 -8 0
-15 -4 -15 -10z"/>
<path d="M4981 5244 c0 -11 3 -14 6 -6 3 7 2 16 -1 19 -3 4 -6 -2 -5 -13z"/>
<path d="M5027 5102 c-7 -36 -1 -40 24 -15 21 21 21 21 1 32 -17 9 -20 7 -25
-17z"/>
<path d="M5893 5056 c7 -15 16 -21 21 -16 6 6 4 15 -4 25 -19 23 -29 18 -17
-9z"/>
<path d="M5826 5002 c-2 -4 20 -27 50 -50 30 -23 54 -49 54 -57 0 -8 5 -15 10
-15 33 0 -15 68 -62 88 -16 6 -28 18 -28 27 0 16 -15 21 -24 7z"/>
<path d="M4981 4926 c-13 -15 -7 -36 9 -36 12 0 19 25 11 39 -6 9 -11 8 -20
-3z"/>
<path d="M3822 4894 c3 -16 14 -19 67 -22 121 -6 122 27 1 36 -67 4 -72 3 -68
-14z"/>
<path d="M1525 4869 c-4 -6 -5 -12 -2 -15 2 -3 7 2 10 11 7 17 1 20 -8 4z"/>
<path d="M5040 4846 c0 -8 7 -16 15 -20 8 -3 15 -16 15 -28 0 -18 -2 -20 -10
-8 -7 11 -12 12 -21 3 -13 -13 -3 -36 13 -27 12 8 1 -56 -13 -70 -18 -19 -8
-24 34 -19 53 7 56 10 28 29 l-22 16 21 23 c14 15 18 25 11 30 -6 3 -11 19
-11 34 0 15 -5 32 -12 39 -16 16 -48 15 -48 -2z"/>
<path d="M5775 4810 c-3 -5 3 -10 15 -10 12 0 18 5 15 10 -3 6 -10 10 -15 10
-5 0 -12 -4 -15 -10z"/>
<path d="M4824 4745 c-4 -8 -4 -21 -1 -28 6 -16 95 -38 103 -26 3 5 -4 9 -15
9 -10 0 -31 14 -44 30 -29 34 -35 36 -43 15z"/>
<path d="M5918 4743 c7 -12 16 -25 22 -28 6 -4 6 -15 -1 -32 -9 -23 -8 -25 6
-13 22 18 15 60 -14 79 -23 15 -24 15 -13 -6z"/>
<path d="M4966 4682 c-3 -6 -1 -14 5 -17 15 -10 25 3 12 16 -7 7 -13 7 -17 1z"/>
<path d="M1338 4618 c0 -18 0 -41 0 -51 1 -10 -2 -16 -6 -13 -5 3 -4 -10 2
-29 6 -19 14 -35 18 -35 5 0 8 -5 8 -11 0 -5 -5 -7 -11 -3 -8 4 -9 -3 -3 -27
4 -19 6 -51 5 -71 -1 -28 3 -39 18 -48 17 -9 20 -8 15 5 -4 8 -9 15 -13 15 -4
0 -8 46 -9 103 -2 159 -4 187 -13 193 -5 3 -10 -10 -11 -28z"/>
<path d="M5771 4619 c-13 -5 -22 -12 -19 -14 3 -3 20 1 39 9 37 17 19 21 -20
5z"/>
<path d="M5095 4590 c-3 -5 -2 -10 4 -10 5 0 13 5 16 10 3 6 2 10 -4 10 -5 0
-13 -4 -16 -10z"/>
<path d="M5832 4550 c7 -11 18 -20 25 -20 19 0 16 6 -12 24 -25 17 -25 16 -13
-4z"/>
<path d="M1660 4540 c0 -5 5 -10 10 -10 6 0 10 5 10 10 0 6 -4 10 -10 10 -5 0
-10 -4 -10 -10z"/>
<path d="M1638 4513 c7 -3 16 -2 19 1 4 3 -2 6 -13 5 -11 0 -14 -3 -6 -6z"/>
<path d="M4727 4513 c-12 -11 -7 -33 7 -33 7 0 16 9 19 20 5 19 -12 28 -26 13z"/>
<path d="M1420 4474 c-13 -34 -13 -33 13 -29 19 4 20 3 6 -8 -10 -8 -14 -19
-9 -31 6 -19 7 -19 14 0 20 48 24 83 9 88 -22 9 -23 8 -33 -20z"/>
<path d="M4050 4470 c0 -5 5 -10 10 -10 6 0 10 5 10 10 0 6 -4 10 -10 10 -5 0
-10 -4 -10 -10z"/>
<path d="M1776 4444 c-31 -30 -13 -33 24 -4 19 15 21 20 8 20 -9 0 -24 -7 -32
-16z"/>
<path d="M1565 4440 c-3 -5 -1 -10 4 -10 6 0 11 5 11 10 0 6 -2 10 -4 10 -3 0
-8 -4 -11 -10z"/>
<path d="M1590 4429 c0 -5 5 -7 10 -4 6 3 10 8 10 11 0 2 -4 4 -10 4 -5 0 -10
-5 -10 -11z"/>
<path d="M1645 4430 c3 -5 8 -10 11 -10 2 0 4 5 4 10 0 6 -5 10 -11 10 -5 0
-7 -4 -4 -10z"/>
<path d="M1306 4407 c3 -10 9 -15 12 -12 3 3 0 11 -7 18 -10 9 -11 8 -5 -6z"/>
<path d="M1670 4405 c-8 -9 -8 -15 -2 -15 12 0 26 19 19 26 -2 2 -10 -2 -17
-11z"/>
<path d="M1745 4400 c-3 -5 -1 -10 4 -10 6 0 11 5 11 10 0 6 -2 10 -4 10 -3 0
-8 -4 -11 -10z"/>
<path d="M4962 4399 c2 -6 8 -10 13 -10 5 0 11 4 13 10 2 6 -4 11 -13 11 -9 0
-15 -5 -13 -11z"/>
<path d="M1587 4314 l-27 -54 25 0 c26 0 55 33 55 62 0 10 -7 18 -17 18 -14 0
-15 2 -4 9 7 5 9 11 4 14 -5 3 -21 -19 -36 -49z"/>
<path d="M1398 4353 c7 -3 16 -2 19 1 4 3 -2 6 -13 5 -11 0 -14 -3 -6 -6z"/>
<path d="M1550 4339 c0 -5 5 -7 10 -4 6 3 10 8 10 11 0 2 -4 4 -10 4 -5 0 -10
-5 -10 -11z"/>
<path d="M1351 4296 c-7 -8 -8 -17 -3 -20 6 -3 13 1 16 10 9 23 2 28 -13 10z"/>
<path d="M5395 4278 c4 -13 12 -51 19 -84 6 -34 19 -71 29 -81 9 -11 17 -31
17 -45 0 -14 7 -45 15 -68 18 -50 19 -103 4 -132 -6 -11 -8 -22 -5 -25 3 -4
13 11 21 31 14 33 14 44 1 99 -8 34 -17 76 -20 93 -5 32 -5 32 32 27 30 -4 46
1 76 21 21 14 57 31 79 37 49 13 77 30 77 46 0 7 5 13 12 13 31 0 -9 14 -79
27 -43 8 -113 25 -156 39 -43 13 -90 24 -104 24 -22 0 -24 -3 -18 -22z"/>
<path d="M5795 4241 c-3 -5 -1 -12 5 -16 5 -3 10 1 10 9 0 18 -6 21 -15 7z"/>
<path d="M1705 4070 c-3 -5 -1 -10 4 -10 6 0 11 5 11 10 0 6 -2 10 -4 10 -3 0
-8 -4 -11 -10z"/>
<path d="M1530 4046 c0 -9 2 -16 4 -16 2 0 11 -2 19 -5 8 -4 14 0 14 10 0 8
-3 13 -5 10 -3 -3 -11 0 -19 6 -10 9 -13 8 -13 -5z"/>
<path d="M1600 3999 c0 -5 5 -7 10 -4 6 3 10 8 10 11 0 2 -4 4 -10 4 -5 0 -10
-5 -10 -11z"/>
<path d="M2005 3980 c-4 -6 -24 -10 -46 -10 -22 0 -49 -5 -59 -10 -11 -6 -41
-11 -67 -13 -52 -3 -100 -28 -88 -46 8 -14 32 -14 37 0 2 5 10 11 18 13 8 2
22 5 30 8 8 3 59 16 113 28 53 13 97 24 97 25 0 9 -30 12 -35 5z"/>
<path d="M1563 3957 c4 -10 -3 -23 -21 -36 -20 -15 -23 -20 -10 -21 9 0 20 5
23 11 4 6 13 8 19 6 16 -6 9 40 -7 50 -6 4 -8 0 -4 -10z"/>
<path d="M1710 3895 c-14 -17 -35 -21 -24 -4 4 7 -2 7 -17 -1 -31 -16 -39 -25
-15 -16 16 5 17 4 6 -9 -7 -8 -9 -15 -5 -15 4 0 2 -6 -4 -14 -8 -10 -9 -16 -1
-21 6 -3 7 -12 4 -18 -4 -7 -3 -8 2 -4 5 5 9 16 9 24 0 9 15 23 32 32 22 11
33 23 33 39 0 26 -3 27 -20 7z"/>
<path d="M2155 3830 c-3 -6 1 -7 9 -4 18 7 21 14 7 14 -6 0 -13 -4 -16 -10z"/>
<path d="M2053 3823 c9 -2 23 -2 30 0 6 3 -1 5 -18 5 -16 0 -22 -2 -12 -5z"/>
<path d="M1949 3810 c-18 -12 -6 -23 19 -18 16 2 17 5 7 15 -7 6 -18 8 -26 3z"/>
<path d="M1834 3761 c7 -10 66 -12 66 -2 0 5 -16 9 -35 9 -19 0 -33 -3 -31 -7z"/>
<path d="M1750 3735 c-10 -13 -9 -15 9 -15 12 0 21 6 21 15 0 8 -4 15 -9 15
-5 0 -14 -7 -21 -15z"/>
<path d="M1670 3680 c18 -12 30 -13 30 -2 0 4 -10 9 -22 9 -18 2 -20 0 -8 -7z"/>
<path d="M594 3609 c-2 -4 0 -10 6 -14 5 -3 10 -4 10 0 0 3 8 1 18 -4 12 -6
23 -6 33 1 11 8 11 9 -3 4 -11 -3 -18 0 -18 7 0 13 -38 18 -46 6z"/>
<path d="M5650 3594 c0 -15 78 -94 93 -94 7 0 -1 10 -16 23 -15 12 -39 36 -52
52 -13 17 -24 25 -25 19z"/>
<path d="M5560 3574 c0 -11 33 -54 41 -54 20 0 7 36 -16 47 -14 6 -25 9 -25 7z"/>
<path d="M6256 3551 c-3 -5 -2 -20 3 -33 6 -13 20 -63 32 -112 18 -74 21 -105
15 -190 -3 -55 -13 -126 -21 -156 -18 -65 -17 -60 -7 -60 10 0 38 155 47 251
4 53 -1 89 -25 184 -31 123 -34 132 -44 116z"/>
<path d="M5770 3488 c0 -4 20 -40 45 -79 25 -39 49 -85 52 -102 8 -43 57 -146
83 -177 13 -15 8 0 -14 40 -19 36 -40 85 -46 110 -17 66 -54 140 -89 180 -16
19 -30 32 -31 28z"/>
<path d="M593 3461 c-25 -21 -36 -68 -14 -63 12 3 12 0 2 -12 -11 -13 -8 -15
21 -14 18 1 39 7 46 15 16 15 8 48 -8 38 -7 -4 -10 3 -8 21 4 33 -10 39 -39
15z"/>
<path d="M5235 3418 c15 -56 37 -108 46 -108 5 0 9 -6 9 -14 0 -7 7 -19 15
-26 8 -7 15 -18 15 -26 0 -18 47 -67 60 -62 7 2 -2 21 -19 46 -17 23 -31 46
-31 52 0 5 -4 10 -9 10 -5 0 -11 13 -14 29 -3 16 -14 37 -24 46 -9 10 -18 24
-19 32 -4 27 -13 43 -24 43 -7 0 -9 -9 -5 -22z"/>
<path d="M5290 3430 c-8 -5 -12 -10 -10 -12 13 -10 89 -42 115 -49 28 -8 29
-7 11 6 -11 8 -26 15 -34 15 -7 0 -11 4 -7 9 5 9 -20 22 -39 20 -5 0 -12 4
-15 10 -4 6 -12 7 -21 1z"/>
<path d="M676 3403 c4 -16 8 -30 10 -32 5 -6 24 10 24 20 0 6 -6 7 -12 3 -10
-6 -10 -5 -1 8 14 16 8 28 -14 28 -10 0 -12 -8 -7 -27z"/>
<path d="M480 3410 c0 -5 5 -10 11 -10 5 0 7 5 4 10 -3 6 -8 10 -11 10 -2 0
-4 -4 -4 -10z"/>
<path d="M1807 3400 c3 -10 13 -20 24 -23 11 -3 17 -11 14 -19 -4 -9 2 -14 15
-14 25 0 25 8 0 26 -11 8 -20 20 -20 26 0 6 -8 14 -19 17 -14 3 -17 0 -14 -13z"/>
<path d="M5462 3344 c10 -10 20 -15 24 -12 3 4 -5 12 -18 18 -22 12 -22 12 -6
-6z"/>
<path d="M5517 3322 c-18 -4 -18 -4 0 -18 23 -17 33 -17 33 0 0 18 -10 24 -33
18z"/>
<path d="M586 3313 c5 -5 12 -12 16 -18 4 -6 8 -2 8 8 0 9 -7 17 -17 17 -9 0
-12 -3 -7 -7z"/>
<path d="M1601 3304 c0 -11 3 -14 6 -6 3 7 2 16 -1 19 -3 4 -6 -2 -5 -13z"/>
<path d="M3531 3240 c0 -8 4 -24 8 -34 7 -19 8 -19 15 -1 4 12 1 24 -9 34 -13
13 -15 13 -14 1z"/>
<path d="M4636 3232 c-2 -4 -1 -14 5 -22 5 -8 9 -25 9 -37 0 -13 5 -23 10 -23
12 0 13 15 4 59 -6 30 -18 40 -28 23z"/>
<path d="M3840 3210 c0 -5 5 -10 11 -10 5 0 7 5 4 10 -3 6 -8 10 -11 10 -2 0
-4 -4 -4 -10z"/>
<path d="M3951 3204 c0 -11 3 -14 6 -6 3 7 2 16 -1 19 -3 4 -6 -2 -5 -13z"/>
<path d="M4680 3211 c0 -5 7 -15 17 -22 15 -13 15 -12 4 9 -12 23 -21 28 -21
13z"/>
<path d="M4765 3210 c3 -5 11 -10 16 -10 6 0 7 5 4 10 -3 6 -11 10 -16 10 -6
0 -7 -4 -4 -10z"/>
<path d="M1745 3200 c3 -5 8 -10 11 -10 2 0 4 5 4 10 0 6 -5 10 -11 10 -5 0
-7 -4 -4 -10z"/>
<path d="M2576 3201 c-8 -12 18 -21 33 -11 10 5 8 9 -4 14 -21 8 -23 8 -29 -3z"/>
<path d="M5084 3195 c22 -17 40 -20 32 -6 -3 5 -16 11 -28 14 -22 6 -22 5 -4
-8z"/>
<path d="M4600 3175 c0 -8 5 -15 10 -15 6 0 10 7 10 15 0 8 -4 15 -10 15 -5 0
-10 -7 -10 -15z"/>
<path d="M4800 3171 c0 -12 5 -21 10 -21 6 0 10 6 10 14 0 8 -4 18 -10 21 -5
3 -10 -3 -10 -14z"/>
<path d="M5135 3170 c3 -5 14 -10 24 -10 9 0 22 -5 29 -12 6 -6 15 -9 18 -5 4
4 -9 14 -29 22 -43 18 -50 19 -42 5z"/>
<path d="M2850 3126 c4 -19 3 -41 -3 -52 -9 -17 -9 -18 6 -5 9 7 17 20 17 27
0 8 5 14 10 14 6 0 10 11 10 25 0 20 -5 25 -24 25 -22 0 -23 -3 -16 -34z"/>
<path d="M5400 3153 c0 -6 8 -17 18 -24 16 -13 16 -13 2 6 -8 11 -16 22 -17
24 -2 2 -3 0 -3 -6z"/>
<path d="M4636 3107 c-6 -26 -4 -29 18 -21 20 8 21 30 2 37 -9 4 -16 -3 -20
-16z"/>
<path d="M5295 3097 c11 -7 36 -20 55 -27 19 -8 61 -29 92 -47 67 -39 91 -43
58 -8 -12 13 -26 22 -31 20 -4 -3 -46 13 -93 35 -86 41 -116 51 -81 27z"/>
<path d="M4415 3089 c-4 -6 -5 -12 -2 -15 2 -3 7 2 10 11 7 17 1 20 -8 4z"/>
<path d="M5070 3070 c0 -5 5 -10 11 -10 5 0 7 5 4 10 -3 6 -8 10 -11 10 -2 0
-4 -4 -4 -10z"/>
<path d="M4861 3054 c0 -11 3 -14 6 -6 3 7 2 16 -1 19 -3 4 -6 -2 -5 -13z"/>
<path d="M4390 3048 c0 -4 4 -8 9 -8 6 0 12 4 15 8 3 5 -1 9 -9 9 -8 0 -15 -4
-15 -9z"/>
<path d="M4621 3044 c0 -11 3 -14 6 -6 3 7 2 16 -1 19 -3 4 -6 -2 -5 -13z"/>
<path d="M3060 3040 c0 -5 5 -10 10 -10 6 0 10 5 10 10 0 6 -4 10 -10 10 -5 0
-10 -4 -10 -10z"/>
<path d="M5097 3039 c7 -7 15 -10 18 -7 3 3 -2 9 -12 12 -14 6 -15 5 -6 -5z"/>
<path d="M3574 3029 c-3 -6 -1 -16 5 -22 8 -8 11 -5 11 11 0 24 -5 28 -16 11z"/>
<path d="M6016 3027 c3 -10 9 -15 12 -12 3 3 0 11 -7 18 -10 9 -11 8 -5 -6z"/>
<path d="M2992 3018 c2 -5 8 -9 13 -9 5 0 11 4 13 9 1 5 -4 9 -13 9 -9 0 -14
-4 -13 -9z"/>
<path d="M3664 3015 c-10 -8 -15 -15 -10 -15 5 0 3 -6 -3 -14 -9 -11 -9 -16 0
-22 7 -4 15 -2 17 4 6 20 33 43 43 37 5 -4 9 -2 9 3 0 6 -7 13 -16 16 -20 8
-17 8 -40 -9z"/>
<path d="M5009 3019 c-2 -26 3 -54 11 -62 4 -5 6 8 4 28 -3 37 -13 60 -15 34z"/>
<path d="M3089 3001 c7 -5 17 -15 22 -22 6 -10 9 -8 9 9 0 16 -6 22 -22 22
-17 0 -19 -3 -9 -9z"/>
<path d="M4816 3001 c-3 -5 1 -14 8 -20 12 -10 13 -8 9 8 -6 23 -9 25 -17 12z"/>
<path d="M5164 2981 c21 -23 26 -26 26 -11 0 5 -10 15 -22 21 -23 12 -23 12
-4 -10z"/>
<path d="M6036 2987 c3 -10 9 -15 12 -12 3 3 0 11 -7 18 -10 9 -11 8 -5 -6z"/>
<path d="M5532 2979 c2 -7 10 -15 17 -17 8 -3 12 1 9 9 -2 7 -10 15 -17 17 -8
3 -12 -1 -9 -9z"/>
<path d="M6322 2917 c-1 -40 -7 -73 -12 -75 -11 -4 -14 -32 -4 -32 4 0 14 9
23 19 13 14 16 35 14 82 -3 88 -17 92 -21 6z"/>
<path d="M3610 2960 c0 -5 5 -10 11 -10 5 0 7 5 4 10 -3 6 -8 10 -11 10 -2 0
-4 -4 -4 -10z"/>
<path d="M6094 2941 c-21 -17 -38 -71 -23 -71 5 0 9 5 9 11 0 6 9 24 21 41 25
35 22 43 -7 19z"/>
<path d="M3570 2910 c0 -13 18 -22 24 -11 3 5 -1 11 -9 15 -8 3 -15 1 -15 -4z"/>
<path d="M3344 2899 c-4 -8 0 -9 15 -4 26 8 27 -2 4 -28 -10 -11 -13 -17 -7
-14 7 4 17 0 24 -8 10 -12 9 -15 -7 -15 -16 0 -19 -5 -15 -30 5 -33 25 -36 31
-5 1 10 11 27 21 37 18 20 16 57 -4 70 -17 11 -54 9 -62 -3z"/>
<path d="M3657 2893 c3 -8 9 -11 12 -6 3 4 17 9 30 11 18 2 22 -1 17 -15 -6
-14 -4 -15 5 -6 18 18 3 31 -35 31 -27 0 -33 -3 -29 -15z"/>
<path d="M6500 2894 c0 -3 7 -12 15 -20 23 -23 29 -81 13 -123 -14 -34 -13
-37 4 -37 12 0 16 6 13 17 -3 9 -1 28 4 42 14 37 -14 127 -40 127 -5 0 -9 -3
-9 -6z"/>
<path d="M3610 2880 c0 -5 7 -10 15 -10 8 0 15 5 15 10 0 6 -7 10 -15 10 -8 0
-15 -4 -15 -10z"/>
<path d="M3830 2874 c0 -8 5 -12 10 -9 6 3 10 10 10 16 0 5 -4 9 -10 9 -5 0
-10 -7 -10 -16z"/>
<path d="M3300 2844 c0 -7 27 -34 33 -34 3 0 3 9 0 20 -5 17 -33 30 -33 14z"/>
<path d="M3950 2836 c0 -2 7 -6 15 -10 8 -3 15 -1 15 4 0 6 -7 10 -15 10 -8 0
-15 -2 -15 -4z"/>
<path d="M4375 2816 c-18 -27 -13 -61 10 -70 24 -9 38 2 63 44 l23 40 -25 0
c-13 0 -31 3 -39 6 -10 3 -22 -4 -32 -20z m33 -21 c-3 -3 -9 2 -12 12 -6 14
-5 15 5 6 7 -7 10 -15 7 -18z"/>
<path d="M4490 2830 c0 -5 5 -10 11 -10 5 0 7 5 4 10 -3 6 -8 10 -11 10 -2 0
-4 -4 -4 -10z"/>
<path d="M3975 2796 c11 -9 14 -15 6 -14 -7 2 -15 -2 -17 -7 -2 -6 4 -11 14
-12 27 -2 24 41 -3 45 l-20 4 20 -16z"/>
<path d="M5670 2801 c0 -12 29 -35 36 -28 11 10 -5 37 -21 37 -8 0 -15 -4 -15
-9z"/>
<path d="M6170 2802 c0 -6 -15 -18 -34 -27 -29 -14 -40 -14 -75 -4 -37 11 -43
10 -56 -7 -14 -17 -16 -17 -27 -3 -20 25 -75 39 -124 32 -36 -5 -48 -12 -59
-33 -21 -41 -59 -60 -133 -67 -55 -5 -62 -8 -39 -14 16 -4 66 -6 112 -4 53 3
100 0 131 -10 27 -7 70 -17 97 -20 29 -5 53 -15 61 -26 7 -10 16 -16 19 -12 4
3 7 -3 7 -15 0 -12 9 -23 22 -28 12 -3 36 -21 55 -38 58 -55 79 -72 114 -88
19 -9 36 -16 39 -15 8 3 100 -66 95 -71 -2 -2 2 -11 10 -19 17 -16 20 -37 5
-28 -17 10 -11 -3 13 -28 12 -14 44 -50 72 -80 27 -31 52 -54 56 -52 14 9 18
133 5 193 -13 66 -6 80 18 33 9 -16 22 -31 30 -34 8 -3 16 -16 18 -29 4 -29
22 -30 26 0 2 12 -1 22 -7 22 -6 0 -11 12 -11 26 0 14 -9 38 -21 52 -67 87
-79 107 -85 138 -4 24 -12 34 -24 34 -10 0 -22 9 -25 20 -3 11 -14 20 -24 20
-22 0 -56 25 -56 41 0 8 -11 19 -24 25 -13 7 -28 20 -33 28 -5 9 -14 16 -20
16 -6 0 -20 8 -30 17 -16 14 -23 15 -38 5 -38 -24 -74 -6 -49 24 9 11 9 18 1
26 -9 9 -12 9 -12 0z m-12 -71 c3 -8 -1 -12 -9 -9 -7 2 -15 10 -17 17 -3 8 1
12 9 9 7 -2 15 -10 17 -17z m-63 -22 c16 -5 38 -6 47 -3 13 4 18 0 18 -13 0
-11 5 -24 11 -30 7 -7 -3 -13 -37 -18 -25 -3 -53 -9 -60 -12 -10 -4 -14 3 -14
22 0 18 -6 29 -20 32 -20 5 -26 23 -13 37 4 3 14 4 22 0 9 -3 29 -10 46 -15z
m188 -65 c18 -9 39 -23 49 -31 9 -8 22 -13 30 -11 20 4 64 -34 73 -62 4 -14
17 -33 28 -42 12 -9 19 -20 15 -24 -4 -3 -27 14 -51 39 -64 65 -131 104 -209
121 -16 4 -28 11 -28 16 0 16 58 12 93 -6z m231 -210 c4 -10 1 -14 -6 -12 -15
5 -23 28 -10 28 5 0 13 -7 16 -16z"/>
<path d="M4565 2780 c3 -5 8 -10 11 -10 2 0 4 5 4 10 0 6 -5 10 -11 10 -5 0
-7 -4 -4 -10z"/>
<path d="M6750 2754 c0 -8 5 -12 10 -9 6 4 8 11 5 16 -9 14 -15 11 -15 -7z"/>
<path d="M4260 2702 c0 -10 7 -19 15 -19 8 0 15 9 15 19 0 10 -7 18 -15 18 -8
0 -15 -8 -15 -18z"/>
<path d="M6582 2670 c0 -14 2 -19 5 -12 2 6 2 18 0 25 -3 6 -5 1 -5 -13z"/>
<path d="M3748 2664 c6 -3 12 -12 12 -20 0 -8 6 -14 13 -14 7 0 22 -8 33 -19
21 -19 21 -18 19 18 -1 36 -1 36 -45 38 -25 1 -39 0 -32 -3z"/>
<path d="M4283 2653 c0 -14 54 -36 68 -27 13 8 11 34 -3 36 -44 5 -65 2 -65
-9z"/>
<path d="M4520 2654 c0 -8 5 -12 10 -9 6 4 8 11 5 16 -9 14 -15 11 -15 -7z"/>
<path d="M3710 2640 c0 -5 5 -10 10 -10 6 0 10 5 10 10 0 6 -4 10 -10 10 -5 0
-10 -4 -10 -10z"/>
<path d="M4495 2620 c3 -5 10 -10 16 -10 5 0 9 5 9 10 0 6 -7 10 -16 10 -8 0
-12 -4 -9 -10z"/>
<path d="M6660 2578 c0 -9 5 -20 10 -23 13 -8 13 5 0 25 -8 13 -10 13 -10 -2z"/>
<path d="M6841 2561 c-6 -11 -11 -32 -11 -46 0 -26 -2 -27 -35 -21 l-35 7 6
-77 c5 -55 3 -75 -5 -70 -6 4 -11 15 -12 24 0 13 -3 12 -11 -5 -14 -29 -38
-30 -38 -2 0 17 -5 20 -25 17 -17 -4 -29 0 -35 11 -8 13 -9 11 -10 -9 0 -38
36 -102 67 -118 l26 -14 -24 -19 -24 -19 33 0 c47 0 97 -26 132 -68 32 -39 94
-161 106 -207 4 -16 25 -60 47 -98 35 -63 39 -75 33 -118 -6 -47 1 -65 38 -86
8 -5 26 -33 41 -63 32 -62 46 -172 25 -185 -8 -5 -16 -2 -21 8 -5 8 -37 38
-71 65 -35 27 -78 64 -96 81 -40 38 -50 39 -58 6 -7 -29 -12 -30 -39 -11 -20
13 -20 11 -18 -79 2 -112 -32 -249 -47 -186 -7 31 -26 38 -33 12 -3 -13 5 -33
23 -56 32 -41 100 -105 111 -105 4 0 14 -16 23 -35 9 -19 22 -35 28 -35 6 0 9
-2 6 -5 -3 -3 6 -19 20 -35 30 -34 75 -139 68 -157 -9 -22 4 -42 37 -58 40
-20 63 -19 70 3 17 58 80 188 122 252 62 96 97 130 214 207 95 63 134 76 145
48 8 -21 -39 -224 -64 -279 -23 -52 -27 -95 -7 -78 7 6 39 25 71 42 73 38 201
54 212 26 7 -17 -38 -94 -96 -162 -19 -23 -55 -67 -80 -98 -25 -32 -63 -78
-84 -102 -21 -24 -37 -47 -34 -50 3 -3 23 2 44 11 89 37 420 43 431 8 3 -7
-16 -33 -41 -58 -70 -69 -64 -86 34 -99 87 -11 140 -34 140 -61 0 -13 -116
-97 -177 -128 -18 -10 -46 -17 -63 -17 -16 0 -50 -9 -74 -21 -25 -11 -51 -22
-58 -23 -7 -2 -20 -6 -28 -9 -8 -4 -42 -8 -75 -10 -33 -1 -65 -6 -71 -10 -6
-3 -49 -9 -95 -12 -159 -12 -206 -21 -228 -42 -7 -8 -16 -11 -20 -8 -3 4 2 11
12 16 10 6 17 22 17 39 0 36 48 67 79 51 11 -6 36 -7 62 -3 42 8 43 9 21 21
-19 10 -21 15 -11 27 10 12 4 14 -35 14 -26 0 -62 -6 -80 -14 -36 -15 -66 -6
-66 20 0 8 -6 32 -12 54 -12 39 -14 40 -47 34 -30 -6 -33 -5 -28 10 4 10 7 22
7 27 0 5 19 8 43 7 39 -3 42 -1 45 25 4 30 3 31 -33 17 -24 -9 -25 -8 -14 12
11 20 10 21 -25 15 -27 -4 -36 -2 -36 9 0 21 -27 17 -33 -6 -7 -26 -55 -28
-65 -2 -4 9 -17 18 -29 19 -18 2 -23 -2 -23 -20 0 -34 -12 -46 -43 -40 -43 8
-103 93 -66 93 7 0 5 10 -5 25 -9 14 -16 31 -15 38 1 6 -4 27 -11 45 -10 28
-16 33 -36 28 -15 -4 -26 -1 -32 10 -5 9 -23 17 -40 18 -41 3 -48 11 -28 31 9
9 16 20 16 25 0 13 -62 35 -100 35 -29 0 -36 4 -38 24 -2 13 1 28 6 33 13 13
-17 128 -33 128 -8 0 -11 -8 -8 -19 2 -10 -5 -37 -17 -61 l-21 -42 -24 26
c-12 13 -33 46 -46 73 -29 57 -62 70 -80 29 -21 -46 43 -175 79 -161 15 6 87
-34 78 -43 -11 -10 -71 -8 -88 3 -10 6 -31 29 -48 50 -16 21 -30 33 -30 27 0
-6 5 -14 10 -17 14 -9 12 -41 -2 -57 -7 -7 -13 -20 -13 -28 0 -8 -13 -21 -30
-29 -77 -37 -91 -45 -108 -63 -24 -24 -57 -24 -57 1 0 11 -9 23 -21 26 -24 8
-39 -3 -20 -14 15 -9 12 -42 -4 -42 -5 0 -26 -15 -45 -33 -34 -31 -84 -44 -86
-21 -2 25 -18 45 -35 45 -25 0 -24 -26 2 -40 24 -13 22 -49 -3 -68 -10 -7 -18
-19 -18 -27 0 -8 -9 -19 -19 -25 -11 -5 -22 -23 -26 -39 -3 -17 -15 -42 -26
-56 -11 -14 -17 -25 -14 -25 4 0 2 -7 -5 -15 -10 -12 -9 -16 3 -21 9 -3 13
-12 11 -19 -10 -25 -34 -25 -56 0 -13 13 -35 27 -50 30 -47 12 -34 -20 20 -46
33 -17 48 -31 50 -48 3 -20 0 -23 -16 -19 -19 5 -20 3 -11 -20 9 -23 7 -29
-15 -45 -28 -20 -34 -37 -13 -37 17 0 47 -32 47 -49 0 -7 -12 -28 -26 -47
l-26 -34 175 0 c131 0 176 3 180 13 4 10 7 10 18 0 10 -10 159 -13 679 -12
418 0 653 4 634 10 -30 8 -55 39 -33 39 6 0 7 5 3 11 -9 15 98 4 179 -18 55
-15 84 -33 53 -33 -8 0 -18 5 -21 10 -8 14 -18 13 -41 -5 -17 -13 23 -14 344
-15 l362 0 0 1018 0 1019 -31 -5 c-30 -4 -32 -3 -26 24 3 16 -1 41 -9 55 -13
26 -12 58 2 106 4 16 1 25 -10 29 -9 3 -14 10 -11 14 3 4 -3 11 -13 15 -33 15
-57 10 -69 -15 -11 -21 -13 -22 -19 -7 -3 10 -4 21 0 24 3 4 -3 16 -14 28 -22
24 -26 46 -15 83 6 16 3 22 -9 22 -10 0 -16 -9 -16 -25 0 -27 -9 -32 -28 -13
-13 13 -15 7 -13 -42 0 -14 -2 -19 -5 -12 -3 6 -14 12 -24 12 -20 0 -33 53
-16 70 17 17 -8 34 -31 22 -15 -8 -26 -6 -49 9 -36 24 -52 24 -50 2 1 -15 -6
-17 -45 -15 -29 2 -58 -2 -76 -12 -20 -10 -50 -14 -91 -11 -41 2 -65 -1 -72
-10 -12 -14 -51 -8 -62 9 -9 13 -168 14 -168 1 0 -6 9 -16 20 -23 12 -7 20 -8
20 -2 0 16 27 12 34 -6 3 -9 6 -29 6 -45 0 -21 -5 -29 -18 -29 -10 0 -22 4
-28 9 -5 4 -21 11 -35 15 -37 8 -59 -21 -68 -86 l-7 -53 -12 47 c-18 69 -16
88 9 88 16 0 19 4 14 23 -10 30 -26 46 -32 30 -7 -18 -16 -16 -30 6 -18 29 8
49 32 25 11 -11 19 -13 23 -7 4 6 16 12 26 14 25 5 31 25 11 33 -24 9 -105
-14 -105 -30 0 -20 -12 -18 -66 11 -26 14 -55 25 -66 25 -10 0 -21 6 -24 14
-3 8 -19 20 -35 26 -16 7 -29 16 -29 21 0 11 -63 6 -72 -6 -4 -5 -4 -46 -1
-92 l6 -83 -27 0 c-19 0 -30 7 -38 25 -6 14 -17 25 -25 25 -8 0 -13 11 -13 29
0 21 6 30 22 34 12 4 27 2 34 -4 15 -12 19 7 19 85 0 62 -15 83 -34 47z m209
-166 c12 0 14 -10 12 -45 -5 -69 -46 -88 -71 -34 -9 21 -7 31 11 64 13 22 25
34 28 27 3 -7 12 -12 20 -12z m627 -50 c12 -8 23 -25 25 -38 2 -14 11 -23 25
-25 12 -2 27 -10 33 -18 7 -8 23 -14 36 -14 25 0 28 -9 18 -47 -8 -29 -32 -30
-36 -1 -2 12 -9 23 -17 26 -10 3 -12 -2 -9 -23 7 -35 -9 -95 -26 -95 -7 0 -23
19 -36 43 -35 63 -62 97 -77 97 -8 0 -16 7 -19 15 -5 12 -10 13 -20 4 -20 -16
-58 -7 -62 16 -2 11 -11 28 -19 37 -13 15 -11 17 31 23 25 4 57 4 70 1 14 -3
28 -2 31 4 9 14 27 12 52 -5z m-358 -157 c1 -5 -3 -8 -9 -8 -5 0 -10 12 -9 28
0 24 1 25 9 7 5 -11 9 -23 9 -27z m541 -36 c0 -11 -33 -42 -45 -42 -13 0 -28
38 -20 50 5 8 65 0 65 -8z m222 -84 c-7 -7 -12 -8 -12 -2 0 14 12 26 19 19 2
-3 -1 -11 -7 -17z m-499 -624 c-5 -13 -2 -15 15 -10 15 5 24 1 32 -14 6 -11 8
-25 5 -30 -9 -14 -49 -12 -63 2 -13 13 -16 50 -5 61 12 13 22 7 16 -9z m-884
-749 c7 -7 -9 -36 -17 -31 -4 2 -8 -4 -8 -14 0 -10 4 -16 8 -14 4 3 8 1 8 -4
0 -11 39 -4 57 11 9 7 25 -3 56 -34 45 -46 61 -74 58 -100 -1 -8 7 -23 17 -32
29 -26 18 -67 -18 -67 -33 0 -39 12 -32 57 4 28 1 33 -21 38 -14 4 -30 4 -36
1 -5 -4 -11 2 -13 11 -2 12 -14 18 -41 19 -40 1 -59 17 -50 41 7 18 -31 17
-47 -2 -17 -21 -30 -19 -30 5 0 11 5 20 11 20 7 0 9 11 6 27 -3 18 2 37 15 56
17 23 25 27 47 22 14 -4 28 -8 30 -10z m-243 -79 c10 -14 23 -22 28 -19 6 4 7
2 3 -3 -5 -5 -19 -9 -30 -9 -16 0 -22 -6 -21 -22 1 -26 -4 -27 -40 -13 -32 12
-33 36 -4 67 27 29 41 29 64 -1z m460 -217 c10 -17 -13 -36 -27 -22 -12 12 -4
33 11 33 5 0 12 -5 16 -11z m162 -91 c-2 -13 -10 -23 -18 -23 -8 0 -21 -4 -28
-9 -7 -4 -16 -5 -19 -2 -3 3 -12 1 -20 -6 -11 -9 -18 -8 -30 4 -20 20 -7 41
20 34 12 -3 26 -1 31 3 10 8 36 17 59 20 5 0 7 -9 5 -21z m-33 -83 c0 -28 -29
-25 -33 3 -3 19 0 23 15 20 10 -2 18 -12 18 -23z m356 -142 c13 -16 12 -17 -3
-4 -17 13 -22 21 -14 21 2 0 10 -8 17 -17z m-127 -59 c3 -8 2 -12 -4 -9 -6 3
-10 10 -10 16 0 14 7 11 14 -7z"/>
<path d="M7652 2263 c-12 -5 63 -73 81 -73 19 0 4 39 -23 58 -30 23 -36 24
-58 15z"/>
<path d="M7760 2550 c0 -5 5 -10 11 -10 5 0 7 5 4 10 -3 6 -8 10 -11 10 -2 0
-4 -4 -4 -10z"/>
<path d="M6530 2545 c0 -6 38 -45 45 -45 2 0 -1 11 -7 25 -9 21 -38 36 -38 20z"/>
<path d="M6724 2473 c2 -15 5 -31 5 -35 1 -5 6 -8 12 -8 15 0 7 63 -9 68 -9 3
-12 -4 -8 -25z"/>
<path d="M6580 2477 c0 -7 12 -24 26 -38 l27 -24 -13 25 c-7 13 -19 31 -27 38
-11 11 -13 11 -13 -1z"/>
<path d="M4391 2454 c0 -11 3 -14 6 -6 3 7 2 16 -1 19 -3 4 -6 -2 -5 -13z"/>
<path d="M8191 2424 c0 -11 3 -14 6 -6 3 7 2 16 -1 19 -3 4 -6 -2 -5 -13z"/>
<path d="M6610 2255 c-10 -12 -10 -18 0 -30 10 -12 10 -18 0 -30 -13 -16 -7
-45 10 -45 5 0 10 10 10 23 0 13 5 28 10 33 7 7 8 19 1 37 -12 31 -14 32 -31
12z"/>
<path d="M5900 2165 c-18 -21 -3 -32 16 -13 10 9 12 18 6 22 -5 3 -15 -1 -22
-9z"/>
<path d="M6320 1540 c0 -5 5 -10 11 -10 5 0 7 5 4 10 -3 6 -8 10 -11 10 -2 0
-4 -4 -4 -10z"/>
<path d="M6414 1452 c4 -7 3 -12 -3 -12 -7 0 -7 -8 1 -25 6 -13 15 -22 20 -19
6 4 6 10 0 16 -6 6 -8 16 -6 23 3 7 0 16 -7 21 -8 4 -10 3 -5 -4z"/>
<path d="M4170 1410 c0 -5 5 -10 10 -10 6 0 10 5 10 10 0 6 -4 10 -10 10 -5 0
-10 -4 -10 -10z"/>
<path d="M4640 1380 c0 -13 18 -22 24 -11 3 5 -1 11 -9 15 -8 3 -15 1 -15 -4z"/>
<path d="M4440 1367 c0 -5 9 -7 20 -4 11 3 20 1 20 -4 0 -5 4 -9 10 -9 5 0 7
7 4 15 -6 15 -54 17 -54 2z"/>
<path d="M4385 1360 c-3 -5 -1 -10 4 -10 6 0 11 5 11 10 0 6 -2 10 -4 10 -3 0
-8 -4 -11 -10z"/>
<path d="M6432 1350 c-8 -13 -8 -20 -1 -20 5 0 7 -4 4 -10 -7 -12 23 -80 36
-80 11 0 11 3 3 24 -3 9 -11 13 -18 9 -8 -4 -8 -3 0 6 9 10 9 19 -1 38 -8 14
-11 32 -8 39 8 20 0 17 -15 -6z"/>
<path d="M6655 1341 c-3 -5 -1 -12 5 -16 6 -4 8 -11 5 -16 -7 -11 23 -25 32
-15 8 7 -17 56 -28 56 -4 0 -10 -4 -14 -9z"/>
<path d="M4321 1323 c-16 -17 -11 -25 8 -14 7 5 12 13 10 19 -2 6 -10 4 -18
-5z"/>
<path d="M4380 1321 c0 -15 20 -24 21 -9 1 7 5 2 10 -12 l8 -25 -2 25 c-2 24
-37 44 -37 21z"/>
<path d="M4240 1280 c0 -5 7 -10 15 -10 8 0 15 5 15 10 0 6 -7 10 -15 10 -8 0
-15 -4 -15 -10z"/>
<path d="M4178 1253 c-16 -8 -28 -20 -28 -27 0 -8 -7 -17 -16 -20 -14 -5 -12
-10 10 -27 30 -23 31 -23 40 8 5 15 2 24 -10 31 -18 10 -16 12 34 38 15 7 20
13 12 13 -8 -1 -27 -8 -42 -16z m-8 -63 c0 -11 -2 -20 -4 -20 -2 0 -6 9 -9 20
-3 11 -1 20 4 20 5 0 9 -9 9 -20z"/>
<path d="M4280 1250 c-13 -8 -13 -10 2 -10 9 0 20 5 23 10 8 13 -5 13 -25 0z"/>
<path d="M4320 1246 c0 -20 -60 -27 -60 -7 -1 15 -2 15 -13 0 -7 -9 -19 -14
-27 -11 -12 3 -12 2 -3 -8 8 -8 27 -10 62 -5 41 6 51 11 51 26 0 10 -2 19 -5
19 -3 0 -5 -6 -5 -14z"/>
<path d="M6647 1033 c-13 -13 -7 -25 9 -19 13 5 14 4 6 -7 -9 -10 -8 -17 0
-25 17 -17 28 -15 28 6 0 21 -33 56 -43 45z"/>
<path d="M6340 937 c0 -8 6 -20 14 -26 12 -10 13 -8 9 9 -7 25 -23 37 -23 17z"/>
<path d="M6194 886 c11 -9 24 -16 30 -16 12 0 7 5 -24 19 -24 11 -24 11 -6 -3z"/>
<path d="M7440 875 c-11 -13 -10 -14 4 -9 9 3 16 10 16 15 0 13 -6 11 -20 -6z"/>
<path d="M6793 861 c-26 -17 -53 -57 -41 -65 42 -28 65 -40 72 -38 23 7 67
-12 99 -43 35 -34 48 -34 61 0 8 22 -22 85 -41 85 -7 0 -13 6 -13 13 0 22 -54
67 -81 67 -13 0 -38 -9 -56 -19z m122 -109 c-3 -3 -11 0 -18 7 -9 10 -8 11 6
5 10 -3 15 -9 12 -12z"/>
<path d="M7394 836 c-10 -8 -15 -18 -11 -22 4 -4 17 2 30 14 24 25 12 30 -19
8z"/>
<path d="M5034 822 c-6 -4 -14 -19 -17 -34 -4 -14 -10 -34 -13 -45 -5 -12 -4
-15 3 -8 9 9 46 95 40 95 -1 0 -7 -4 -13 -8z"/>
<path d="M5660 696 c0 -2 8 -10 18 -17 15 -13 16 -12 3 4 -13 16 -21 21 -21
13z"/>
<path d="M3500 679 c0 -5 5 -7 10 -4 6 3 10 8 10 11 0 2 -4 4 -10 4 -5 0 -10
-5 -10 -11z"/>
<path d="M5670 660 l-35 -7 43 -2 c27 0 41 3 37 9 -3 6 -7 9 -8 9 -1 -1 -18
-5 -37 -9z"/>
<path d="M7067 643 c3 -8 13 -18 23 -23 14 -8 16 -5 12 15 -2 15 -10 23 -22
22 -10 -1 -16 -7 -13 -14z"/>
<path d="M6925 640 c-17 -7 -15 -9 13 -9 17 -1 32 4 32 9 0 12 -17 12 -45 0z"/>
<path d="M1600 596 c0 -8 4 -17 9 -20 5 -4 7 3 4 14 -6 23 -13 26 -13 6z"/>
<path d="M7470 580 c-8 -5 -12 -11 -9 -14 3 -3 14 1 25 9 21 16 8 20 -16 5z"/>
<path d="M6930 559 c0 -15 7 -29 15 -33 18 -7 18 2 0 34 l-14 25 -1 -26z"/>
<path d="M4006 559 c-19 -12 -19 -25 -1 -354 1 -22 8 -59 14 -83 7 -23 10 -46
7 -50 -3 -5 4 -16 14 -25 19 -16 20 -15 26 11 3 15 8 34 11 42 4 8 7 113 7
232 l1 218 -29 10 c-16 5 -29 10 -30 10 -1 0 -9 -5 -20 -11z"/>
<path d="M4103 527 c0 -8 6 -14 14 -14 9 0 10 4 2 14 -6 7 -12 13 -14 13 -1 0
-2 -6 -2 -13z"/>
<path d="M4154 473 c-4 -20 -3 -77 1 -127 4 -50 10 -118 12 -151 2 -33 6 -82
9 -110 3 -27 5 -58 5 -68 0 -15 11 -17 94 -17 92 0 93 0 127 33 60 61 176 62
247 1 35 -30 47 -35 83 -32 45 3 51 13 65 98 3 19 18 68 34 108 50 126 41 139
-98 143 -85 2 -121 15 -151 54 -11 14 -24 25 -28 25 -5 0 -22 13 -39 28 -18
17 -38 27 -50 25 -11 -2 -38 0 -60 4 -27 6 -53 4 -82 -5 -38 -13 -48 -12 -102
6 l-60 20 -7 -35z"/>
<path d="M7295 319 c-12 -19 5 -23 22 -6 16 16 16 17 1 17 -9 0 -20 -5 -23
-11z"/>
<path d="M5660 253 c-14 -2 -48 -15 -75 -29 -40 -20 -53 -34 -61 -60 -10 -30
-9 -36 7 -44 38 -21 149 -5 134 19 -2 5 5 11 16 14 15 4 20 11 15 22 -4 11 -2
14 6 9 8 -5 9 -2 5 9 -4 11 -1 17 7 17 8 0 13 10 12 24 -1 24 -9 26 -66 19z"/>
<path d="M5752 242 c7 -9 13 -18 14 -20 1 -2 4 4 7 12 3 8 -2 16 -14 19 -17 5
-18 3 -7 -11z"/>
<path d="M5545 72 c-6 -6 32 -40 54 -47 12 -3 19 -11 16 -16 -4 -5 9 -9 27 -9
28 0 35 5 45 31 7 18 10 36 7 41 -5 8 -140 8 -149 0z"/>
<path d="M1369 65 c-1 -5 -1 -18 0 -27 1 -10 -1 -19 -6 -19 -4 -1 -21 -3 -37
-5 -57 -6 -37 -14 37 -14 45 0 77 4 77 10 0 6 -4 10 -9 10 -5 0 -11 9 -14 21
-4 13 -10 18 -17 14 -7 -4 -16 -1 -21 6 -5 8 -9 10 -10 4z"/>
<path d="M7440 50 c0 -5 5 -10 11 -10 5 0 7 5 4 10 -3 6 -8 10 -11 10 -2 0 -4
-4 -4 -10z"/>
<path d="M1250 10 c-13 -8 -12 -10 3 -10 9 0 17 5 17 10 0 12 -1 12 -20 0z"/>
<path d="M1476 12 c-2 -4 4 -9 15 -9 11 -1 17 2 14 8 -7 11 -22 12 -29 1z"/>
</g>
</svg>
